# Blender v3.2.0 OBJ File: 'bot.blend'
# www.blender.org
mtllib bot.mtl
o Cone_Cone.001
v 0.410536 0.892389 0.000000
v 0.501480 1.000000 -0.518963
v 0.025703 1.000000 -0.590709
v -0.206366 1.000000 -0.518963
v -0.403439 1.000000 0.000000
v 0.025703 -0.498661 -0.000000
v 0.239844 0.801823 -0.449448
v 0.402845 0.930045 -0.506263
v 0.100056 0.930045 -0.551923
v 0.025703 -0.498661 -0.000000
v 0.501480 1.000000 -0.518963
v 0.025703 1.000000 -0.590709
v 0.239844 0.801823 -0.449448
v 0.402845 0.930045 -0.506263
v 0.100056 0.930045 -0.551923
v 0.258820 0.108720 -0.567650
v 0.316210 0.153864 -0.587654
v 0.209603 0.153864 -0.603730
v 0.388989 1.000000 0.000000
v 0.297947 1.000000 -0.251959
v 0.078152 1.000000 -0.285103
v -0.029058 1.000000 -0.251959
v -0.120100 1.000000 0.000000
v 0.388989 1.324406 0.000000
v 0.297947 1.324406 -0.173644
v 0.078152 1.324406 -0.179219
v -0.029058 1.324406 -0.173644
v -0.120100 1.324406 0.000000
v -0.029058 1.152934 -0.215039
v -0.029058 1.261070 -0.188934
v 0.078152 1.261070 -0.199892
v 0.078152 1.152934 -0.235187
v 0.297947 1.152934 -0.215039
v 0.297947 1.261070 -0.188934
v 0.388989 1.261070 0.000000
v 0.388989 1.152934 0.000000
v -0.120100 1.152934 0.000000
v -0.120100 1.261070 0.000000
v 0.297947 1.152934 -0.215039
v 0.297947 1.261070 -0.188934
v 0.388989 1.261070 0.000000
v 0.388989 1.152934 0.000000
v 0.297947 1.152934 -0.215039
v 0.297947 1.261070 -0.188934
v 0.388989 1.261070 0.000000
v 0.388989 1.152934 0.000000
v 0.297947 1.152934 -0.215039
v 0.297947 1.261070 -0.188934
v 0.388989 1.261070 0.000000
v 0.388989 1.152934 0.000000
v 0.297947 1.152934 -0.215039
v 0.297947 1.261070 -0.188934
v 0.388989 1.261070 0.000000
v 0.388989 1.152934 0.000000
v 0.327000 1.187442 -0.142251
v 0.327000 1.226562 -0.132807
v 0.359936 1.226562 0.000000
v 0.359936 1.187442 0.000000
v 0.501480 1.000000 0.518963
v 0.025703 1.000000 0.590709
v -0.206366 1.000000 0.518963
v 0.239844 0.801823 0.449448
v 0.402845 0.930045 0.506264
v 0.100056 0.930045 0.551923
v 0.501480 1.000000 0.518963
v 0.025703 1.000000 0.590709
v 0.239844 0.801823 0.449448
v 0.402845 0.930045 0.506264
v 0.100056 0.930045 0.551923
v 0.258820 0.108720 0.567650
v 0.316210 0.153864 0.587654
v 0.209603 0.153864 0.603730
v 0.297947 1.000000 0.251959
v 0.078152 1.000000 0.285104
v -0.029058 1.000000 0.251959
v 0.297947 1.324406 0.173644
v 0.078152 1.324406 0.179220
v -0.029058 1.324406 0.173644
v -0.029058 1.152934 0.215039
v -0.029058 1.261070 0.188934
v 0.078152 1.261070 0.199892
v 0.078152 1.152934 0.235187
v 0.297947 1.152934 0.215039
v 0.297947 1.261070 0.188934
v 0.297947 1.152934 0.215039
v 0.297947 1.261070 0.188934
v 0.297947 1.152934 0.215039
v 0.297947 1.261070 0.188934
v 0.297947 1.152934 0.215039
v 0.297947 1.261070 0.188934
v 0.297947 1.152934 0.215039
v 0.297947 1.261070 0.188934
v 0.327000 1.187442 0.142251
v 0.327000 1.226562 0.132807
vt 0.490000 0.250000
vt 0.250000 0.250000
vt 0.419706 0.080294
vt 0.250000 0.010000
vt 0.250000 0.010000
vt 0.250000 0.250000
vt 0.080294 0.080294
vt 0.010000 0.250000
vt 0.276521 0.184927
vt 0.276521 0.032188
vt 0.276521 0.032188
vt 0.276521 0.184927
vt 0.000000 0.000000
vt 0.000000 0.000000
vt 0.000000 0.000000
vt 0.000000 0.000000
vt 0.419706 0.080294
vt 0.010000 0.250000
vt 0.080294 0.080294
vt 0.384523 0.076924
vt 0.276521 0.032188
vt 0.276521 0.184927
vt 0.384523 0.076924
vt 0.384523 0.076924
vt 0.250000 0.010000
vt 0.080294 0.080294
vt 0.080294 0.080294
vt 0.250000 0.010000
vt 0.250000 0.010000
vt 0.000000 0.000000
vt 0.000000 0.000000
vt 0.419706 0.080294
vt 0.490000 0.250000
vt 0.490000 0.250000
vt 0.000000 0.000000
vt 0.010000 0.250000
vt 0.490000 0.250000
vt 0.419706 0.080294
vt 0.419706 0.080294
vt 0.010000 0.250000
vt 0.000000 0.000000
vt 0.000000 0.000000
vt 0.000000 0.000000
vt 0.000000 0.000000
vt 0.000000 0.000000
vt 0.010000 0.250000
vt 0.080294 0.080294
vt 0.419706 0.080294
vt 0.490000 0.250000
vt 0.490000 0.250000
vt 0.419706 0.080294
vt 0.250000 0.010000
vt 0.490000 0.250000
vt 0.419706 0.080294
vt 0.419706 0.080294
vt 0.490000 0.250000
vt 0.000000 0.000000
vt 0.000000 0.000000
vt 0.419706 0.080294
vt 0.490000 0.250000
vt 0.490000 0.250000
vt 0.419706 0.080294
vt 0.000000 0.000000
vt 0.000000 0.000000
vt 0.490000 0.250000
vt 0.419706 0.080294
vt 0.419706 0.080294
vt 0.490000 0.250000
vt 0.000000 0.000000
vt 0.000000 0.000000
vt 0.490000 0.250000
vt 0.419706 0.080294
vt 0.419706 0.080294
vt 0.490000 0.250000
vt 0.000000 0.000000
vt 0.000000 0.000000
vt 0.419706 0.080294
vt 0.490000 0.250000
vt 0.000000 0.000000
vt 0.000000 0.000000
vt 0.419706 0.080294
vt 0.250000 0.010000
vt 0.250000 0.010000
vt 0.080294 0.080294
vt 0.276521 0.184927
vt 0.276521 0.184927
vt 0.276521 0.032188
vt 0.276521 0.032188
vt 0.000000 0.000000
vt 0.000000 0.000000
vt 0.000000 0.000000
vt 0.000000 0.000000
vt 0.419706 0.080294
vt 0.080294 0.080294
vt 0.384523 0.076924
vt 0.276521 0.184927
vt 0.276521 0.032188
vt 0.384523 0.076924
vt 0.384523 0.076924
vt 0.250000 0.010000
vt 0.250000 0.010000
vt 0.080294 0.080294
vt 0.080294 0.080294
vt 0.250000 0.010000
vt 0.000000 0.000000
vt 0.000000 0.000000
vt 0.419706 0.080294
vt 0.000000 0.000000
vt 0.419706 0.080294
vt 0.419706 0.080294
vt 0.000000 0.000000
vt 0.000000 0.000000
vt 0.000000 0.000000
vt 0.000000 0.000000
vt 0.000000 0.000000
vt 0.080294 0.080294
vt 0.419706 0.080294
vt 0.419706 0.080294
vt 0.250000 0.010000
vt 0.419706 0.080294
vt 0.419706 0.080294
vt 0.000000 0.000000
vt 0.000000 0.000000
vt 0.419706 0.080294
vt 0.419706 0.080294
vt 0.000000 0.000000
vt 0.000000 0.000000
vt 0.419706 0.080294
vt 0.419706 0.080294
vt 0.000000 0.000000
vt 0.000000 0.000000
vt 0.419706 0.080294
vt 0.419706 0.080294
vt 0.000000 0.000000
vt 0.000000 0.000000
vt 0.419706 0.080294
vt 0.000000 0.000000
vt 0.000000 0.000000
vn 0.9576 -0.2649 0.1129
vn 0.0000 0.0000 1.0000
vn -0.2764 -0.3524 -0.8941
vn -0.9031 -0.2586 -0.3429
vn 0.0000 1.0000 0.0000
vn 0.0032 -0.3347 -0.9423
vn 0.1389 -0.3631 -0.9213
vn 0.2584 -0.3598 -0.8965
vn -0.6671 -0.1430 0.7311
vn 0.1263 -0.5316 -0.8375
vn 0.1485 0.0867 -0.9851
vn 0.4230 -0.1411 0.8951
vn -0.0740 0.2724 -0.9593
vn 0.5375 0.8352 0.1165
vn 0.8923 0.0541 -0.4481
vn -0.8923 0.0541 -0.4481
vn 0.0362 0.2729 -0.9614
vn 0.1158 0.2713 -0.9555
vn 0.0679 0.2725 -0.9598
vn -0.9308 0.0438 -0.3629
vn -0.9106 0.0495 -0.4104
vn 0.9308 0.0438 -0.3629
vn -0.2325 0.2656 -0.9356
vn -0.1382 0.2705 -0.9528
vn 0.8929 0.3268 -0.3098
vn 0.9721 0.0281 -0.2328
vn 0.9072 0.0987 -0.4089
vn 0.8956 -0.2807 -0.3451
vn 0.9576 -0.2649 -0.1129
vn -0.2764 -0.3524 0.8941
vn -0.9031 -0.2586 0.3429
vn 0.0032 -0.3347 0.9423
vn 0.1389 -0.3631 0.9213
vn 0.2584 -0.3598 0.8965
vn -0.6671 -0.1430 -0.7311
vn 0.1263 -0.5316 0.8375
vn 0.1485 0.0867 0.9851
vn 0.4230 -0.1411 -0.8951
vn -0.0740 0.2724 0.9593
vn 0.5375 0.8352 -0.1165
vn 0.8923 0.0541 0.4481
vn -0.8923 0.0541 0.4481
vn 0.0362 0.2729 0.9614
vn 0.1158 0.2713 0.9555
vn 0.0679 0.2725 0.9598
vn -0.9308 0.0438 0.3629
vn -0.9106 0.0495 0.4104
vn 0.9308 0.0438 0.3629
vn -0.2325 0.2656 0.9356
vn -0.1382 0.2705 0.9528
vn 0.8929 0.3268 0.3098
vn 0.9721 0.0281 0.2328
vn 0.9072 0.0987 0.4089
vn 0.8956 -0.2807 0.3451
usemtl None
s off
f 1/1/1 6/2/1 2/3/1
f 6/2/2 3/4/2 12/5/2 10/6/2
f 3/4/3 6/2/3 4/7/3
f 4/7/4 6/2/4 5/8/4
f 7/9/2 9/10/2 15/11/2 13/12/2
f 3/13/2 2/14/2 11/15/2 12/16/2
f 2/3/2 6/2/2 10/6/2 11/17/2
f 4/7/5 5/8/5 23/18/5 22/19/5
f 7/9/6 8/20/6 11/17/6 10/6/6
f 8/20/7 9/10/7 12/5/7 11/17/7
f 9/10/8 7/9/8 10/6/8 12/5/8
f 13/12/9 15/11/9 18/21/9 16/22/9
f 9/10/2 8/20/2 14/23/2 15/11/2
f 8/20/2 7/9/2 13/12/2 14/23/2
f 17/24/10 16/22/10 18/21/10
f 15/11/11 14/23/11 17/24/11 18/21/11
f 14/23/12 13/12/12 16/22/12 17/24/12
f 31/25/13 30/26/13 27/27/13 26/28/13
f 3/4/5 4/7/5 22/19/5 21/29/5
f 2/14/5 3/13/5 21/30/5 20/31/5
f 1/1/14 2/3/14 20/32/14 19/33/14
f 24/34/5 25/35/5 26/28/5 27/27/5 28/36/5
f 35/37/15 34/38/15 25/39/15 24/34/15
f 30/26/16 38/40/16 28/36/16 27/27/16
f 34/41/17 31/42/17 26/43/17 25/35/17
f 20/31/18 21/30/18 32/44/18 33/45/18
f 33/45/19 32/44/19 31/42/19 34/41/19
f 22/19/20 23/18/20 37/46/20 29/47/20
f 29/47/21 37/46/21 38/40/21 30/26/21
f 19/33/22 20/32/22 33/48/22 36/49/22
f 34/38/2 35/37/2 41/50/2 40/51/2
f 21/29/23 22/19/23 29/47/23 32/52/23
f 32/52/24 29/47/24 30/26/24 31/25/24
f 42/53/2 39/54/2 43/55/2 46/56/2
f 33/45/2 34/41/2 40/57/2 39/58/2
f 36/49/2 33/48/2 39/54/2 42/53/2
f 44/59/2 45/60/2 49/61/2 48/62/2
f 39/58/2 40/57/2 44/63/2 43/64/2
f 40/51/2 41/50/2 45/60/2 44/59/2
f 48/62/2 49/61/2 53/65/2 52/66/2
f 46/56/2 43/55/2 47/67/2 50/68/2
f 43/64/2 44/63/2 48/69/2 47/70/2
f 54/71/25 51/72/25 55/73/25 58/74/25
f 50/68/2 47/67/2 51/72/2 54/71/2
f 47/70/2 48/69/2 52/75/2 51/76/2
f 58/74/26 55/73/26 56/77/26 57/78/26
f 51/76/27 52/75/27 56/79/27 55/80/27
f 52/66/28 53/65/28 57/78/28 56/77/28
f 1/1/29 59/81/29 6/2/29
f 6/2/2 10/6/2 66/82/2 60/83/2
f 60/83/30 61/84/30 6/2/30
f 61/84/31 5/8/31 6/2/31
f 62/85/2 67/86/2 69/87/2 64/88/2
f 60/89/2 66/90/2 65/91/2 59/92/2
f 59/81/2 65/93/2 10/6/2 6/2/2
f 61/84/5 75/94/5 23/18/5 5/8/5
f 62/85/32 10/6/32 65/93/32 63/95/32
f 63/95/33 65/93/33 66/82/33 64/88/33
f 64/88/34 66/82/34 10/6/34 62/85/34
f 67/86/35 70/96/35 72/97/35 69/87/35
f 64/88/2 69/87/2 68/98/2 63/95/2
f 63/95/2 68/98/2 67/86/2 62/85/2
f 71/99/36 72/97/36 70/96/36
f 69/87/37 72/97/37 71/99/37 68/98/37
f 68/98/38 71/99/38 70/96/38 67/86/38
f 81/100/39 77/101/39 78/102/39 80/103/39
f 60/83/5 74/104/5 75/94/5 61/84/5
f 59/92/5 73/105/5 74/106/5 60/89/5
f 1/1/40 19/33/40 73/107/40 59/81/40
f 24/34/5 28/36/5 78/102/5 77/101/5 76/108/5
f 35/37/41 24/34/41 76/109/41 84/110/41
f 80/103/42 78/102/42 28/36/42 38/40/42
f 84/111/43 76/108/43 77/112/43 81/113/43
f 73/105/44 83/114/44 82/115/44 74/106/44
f 83/114/45 84/111/45 81/113/45 82/115/45
f 75/94/46 79/116/46 37/46/46 23/18/46
f 79/116/47 80/103/47 38/40/47 37/46/47
f 19/33/48 36/49/48 83/117/48 73/107/48
f 84/110/2 86/118/2 41/50/2 35/37/2
f 74/104/49 82/119/49 79/116/49 75/94/49
f 82/119/50 81/100/50 80/103/50 79/116/50
f 42/53/2 46/56/2 87/120/2 85/121/2
f 83/114/2 85/122/2 86/123/2 84/111/2
f 36/49/2 42/53/2 85/121/2 83/117/2
f 88/124/2 90/125/2 49/61/2 45/60/2
f 85/122/2 87/126/2 88/127/2 86/123/2
f 86/118/2 88/124/2 45/60/2 41/50/2
f 90/125/2 92/128/2 53/65/2 49/61/2
f 46/56/2 50/68/2 89/129/2 87/120/2
f 87/126/2 89/130/2 90/131/2 88/127/2
f 54/71/51 58/74/51 93/132/51 91/133/51
f 50/68/2 54/71/2 91/133/2 89/129/2
f 89/130/2 91/134/2 92/135/2 90/131/2
f 58/74/52 57/78/52 94/136/52 93/132/52
f 91/134/53 93/137/53 94/138/53 92/135/53
f 92/128/54 94/136/54 57/78/54 53/65/54
