# Blender v3.2.0 OBJ File: 'bot.blend'
# www.blender.org
mtllib bot.mtl
o Cone_Cone.001
v 0.410536 0.892389 0.000000
v 0.501480 1.000000 -0.518963
v 0.025703 1.000000 -0.590709
v -0.206366 1.000000 -0.518963
v -0.403439 1.000000 0.000000
v 0.025703 -0.498661 -0.000000
v 0.239844 0.801823 -0.449448
v 0.402845 0.930045 -0.506263
v 0.100056 0.930045 -0.551923
v 0.025703 -0.498661 -0.000000
v 0.501480 1.000000 -0.518963
v 0.025703 1.000000 -0.590709
v 0.239844 0.801823 -0.449448
v 0.402845 0.930045 -0.506263
v 0.100056 0.930045 -0.551923
v 0.258820 0.108720 -0.567650
v 0.316210 0.153864 -0.587654
v 0.209603 0.153864 -0.603730
v 0.388989 1.000000 0.000000
v 0.297947 1.000000 -0.251959
v 0.078152 1.000000 -0.285103
v -0.029058 1.000000 -0.251959
v -0.120100 1.000000 0.000000
v 0.388989 1.324406 0.000000
v 0.297947 1.324406 -0.173644
v 0.078152 1.324406 -0.179219
v -0.029058 1.324406 -0.173644
v -0.120100 1.324406 0.000000
v -0.029058 1.152934 -0.215039
v -0.029058 1.261070 -0.188934
v 0.078152 1.261070 -0.199892
v 0.078152 1.152934 -0.235187
v 0.297947 1.152934 -0.215039
v 0.297947 1.261070 -0.188934
v 0.388989 1.261070 0.000000
v 0.388989 1.152934 0.000000
v -0.120100 1.152934 0.000000
v -0.120100 1.261070 0.000000
v 0.297947 1.152934 -0.215039
v 0.297947 1.261070 -0.188934
v 0.388989 1.261070 0.000000
v 0.388989 1.152934 0.000000
v 0.297947 1.152934 -0.215039
v 0.297947 1.261070 -0.188934
v 0.388989 1.261070 0.000000
v 0.388989 1.152934 0.000000
v 0.297947 1.152934 -0.215039
v 0.297947 1.261070 -0.188934
v 0.388989 1.261070 0.000000
v 0.388989 1.152934 0.000000
v 0.297947 1.152934 -0.215039
v 0.297947 1.261070 -0.188934
v 0.388989 1.261070 0.000000
v 0.388989 1.152934 0.000000
v 0.327000 1.187442 -0.142251
v 0.327000 1.226562 -0.132807
v 0.359936 1.226562 0.000000
v 0.359936 1.187442 0.000000
v 0.501480 1.000000 0.518963
v 0.025703 1.000000 0.590709
v -0.206366 1.000000 0.518963
v 0.239844 0.801823 0.449448
v 0.402845 0.930045 0.506264
v 0.100056 0.930045 0.551923
v 0.501480 1.000000 0.518963
v 0.025703 1.000000 0.590709
v 0.239844 0.801823 0.449448
v 0.402845 0.930045 0.506264
v 0.100056 0.930045 0.551923
v 0.258820 0.108720 0.567650
v 0.316210 0.153864 0.587654
v 0.209603 0.153864 0.603730
v 0.297947 1.000000 0.251959
v 0.078152 1.000000 0.285104
v -0.029058 1.000000 0.251959
v 0.297947 1.324406 0.173644
v 0.078152 1.324406 0.179220
v -0.029058 1.324406 0.173644
v -0.029058 1.152934 0.215039
v -0.029058 1.261070 0.188934
v 0.078152 1.261070 0.199892
v 0.078152 1.152934 0.235187
v 0.297947 1.152934 0.215039
v 0.297947 1.261070 0.188934
v 0.297947 1.152934 0.215039
v 0.297947 1.261070 0.188934
v 0.297947 1.152934 0.215039
v 0.297947 1.261070 0.188934
v 0.297947 1.152934 0.215039
v 0.297947 1.261070 0.188934
v 0.297947 1.152934 0.215039
v 0.297947 1.261070 0.188934
v 0.327000 1.187442 0.142251
v 0.327000 1.226562 0.132807
vt 0.490000 0.250000
vt 0.250000 0.250000
vt 0.419706 0.080294
vt 0.250000 0.010000
vt 0.250000 0.250000
vt 0.250000 0.010000
vt 0.080294 0.080294
vt 0.010000 0.250000
vt 0.276521 0.184927
vt 0.276521 0.032188
vt 0.276521 0.184927
vt 0.000000 0.000000
vt 0.000000 0.000000
vt 0.000000 0.000000
vt 0.419706 0.080294
vt 0.080294 0.080294
vt 0.384523 0.076924
vt 0.276521 0.032188
vt 0.384523 0.076924
vt 0.080294 0.080294
vt 0.250000 0.010000
vt 0.250000 0.010000
vt 0.250000 0.010000
vt 0.000000 0.000000
vt 0.000000 0.000000
vt 0.419706 0.080294
vt 0.490000 0.250000
vt 0.080294 0.080294
vt 0.010000 0.250000
vt 0.490000 0.250000
vt 0.419706 0.080294
vt 0.490000 0.250000
vt 0.010000 0.250000
vt 0.000000 0.000000
vt 0.000000 0.000000
vt 0.000000 0.000000
vt 0.000000 0.000000
vt 0.000000 0.000000
vt 0.000000 0.000000
vt 0.010000 0.250000
vt 0.080294 0.080294
vt 0.010000 0.250000
vt 0.419706 0.080294
vt 0.490000 0.250000
vt 0.419706 0.080294
vt 0.490000 0.250000
vt 0.419706 0.080294
vt 0.250000 0.010000
vt 0.490000 0.250000
vt 0.419706 0.080294
vt 0.490000 0.250000
vt 0.000000 0.000000
vt 0.000000 0.000000
vt 0.419706 0.080294
vt 0.419706 0.080294
vt 0.490000 0.250000
vt 0.419706 0.080294
vt 0.000000 0.000000
vt 0.000000 0.000000
vt 0.490000 0.250000
vt 0.490000 0.250000
vt 0.419706 0.080294
vt 0.419706 0.080294
vt 0.490000 0.250000
vt 0.000000 0.000000
vt 0.000000 0.000000
vt 0.490000 0.250000
vt 0.419706 0.080294
vt 0.490000 0.250000
vt 0.419706 0.080294
vt 0.000000 0.000000
vt 0.000000 0.000000
vt 0.000000 0.000000
vt 0.419706 0.080294
vt 0.419706 0.080294
vt 0.250000 0.010000
vt 0.250000 0.010000
vt 0.080294 0.080294
vt 0.276521 0.184927
vt 0.276521 0.032188
vt 0.276521 0.032188
vt 0.000000 0.000000
vt 0.000000 0.000000
vt 0.000000 0.000000
vt 0.080294 0.080294
vt 0.384523 0.076924
vt 0.384523 0.076924
vt 0.276521 0.184927
vt 0.250000 0.010000
vt 0.080294 0.080294
vt 0.250000 0.010000
vt 0.000000 0.000000
vt 0.419706 0.080294
vt 0.080294 0.080294
vt 0.419706 0.080294
vt 0.419706 0.080294
vt 0.000000 0.000000
vt 0.000000 0.000000
vt 0.000000 0.000000
vt 0.000000 0.000000
vt 0.000000 0.000000
vt 0.000000 0.000000
vt 0.080294 0.080294
vt 0.419706 0.080294
vt 0.250000 0.010000
vt 0.250000 0.010000
vt 0.419706 0.080294
vt 0.419706 0.080294
vt 0.000000 0.000000
vt 0.419706 0.080294
vt 0.000000 0.000000
vt 0.000000 0.000000
vt 0.419706 0.080294
vt 0.419706 0.080294
vt 0.419706 0.080294
vt 0.000000 0.000000
vt 0.000000 0.000000
vt 0.419706 0.080294
vt 0.419706 0.080294
vt 0.000000 0.000000
vt 0.000000 0.000000
vt 0.000000 0.000000
vt 0.000000 0.000000
vt 0.419706 0.080294
vt 0.419706 0.080294
vt 0.000000 0.000000
vt 0.000000 0.000000
vt 0.490000 0.250000
vt 0.000000 0.000000
vt 0.419706 0.080294
vt 0.000000 0.000000
vt 0.000000 0.000000
vt 0.276521 0.032188
vt 0.276521 0.184927
vt 0.384523 0.076924
vt 0.276521 0.032188
vt 0.384523 0.076924
vt 0.276521 0.184927
vn 0.9576 -0.2649 0.1129
vn 0.0000 0.0000 1.0000
vn -0.2764 -0.3524 -0.8941
vn -0.9031 -0.2586 -0.3429
vn 0.0000 1.0000 0.0000
vn -0.0834 -0.3132 -0.9460
vn 0.1389 -0.3631 -0.9213
vn -0.0967 0.3088 -0.9462
vn 0.9242 0.1851 -0.3340
vn 0.8857 0.0000 -0.4644
vn -0.8960 0.1042 -0.4317
vn 0.0247 0.2346 -0.9718
vn 0.0888 0.2337 -0.9682
vn 0.0484 0.2344 -0.9709
vn -0.9373 0.0818 -0.3387
vn -0.9168 0.0937 -0.3882
vn 0.9209 0.0000 -0.3899
vn -0.2820 0.2977 -0.9121
vn -0.1759 0.3054 -0.9358
vn 0.7533 0.6342 -0.1744
vn 0.9072 0.0987 -0.4089
vn 0.8996 0.0523 -0.4335
vn 0.9576 -0.2649 -0.1129
vn -0.2764 -0.3524 0.8941
vn -0.9031 -0.2586 0.3429
vn -0.0834 -0.3132 0.9460
vn 0.1389 -0.3631 0.9213
vn 0.3177 -0.3560 0.8788
vn -0.0967 0.3088 0.9462
vn 0.3228 0.9139 -0.2461
vn 0.8960 0.1042 0.4317
vn -0.8960 0.1042 0.4317
vn 0.0473 0.3099 0.9496
vn 0.1419 0.3071 0.9410
vn 0.0868 0.3091 0.9471
vn -0.9373 0.0818 0.3387
vn -0.9168 0.0937 0.3882
vn 0.9373 0.0818 0.3387
vn -0.2820 0.2977 0.9121
vn -0.1759 0.3054 0.9358
vn 0.9198 0.0470 0.3894
vn 0.9072 0.0987 0.4089
vn 0.8996 0.0523 0.4335
vn 0.3177 -0.3560 -0.8788
vn -0.0505 0.2344 -0.9708
vn 0.3228 0.9139 0.2461
vn 0.8960 0.1042 -0.4317
vn -0.8857 -0.0000 -0.4644
vn 0.0473 0.3099 -0.9496
vn 0.1419 0.3071 -0.9410
vn 0.0868 0.3091 -0.9471
vn -0.9209 0.0000 -0.3899
vn -0.9009 0.0000 -0.4341
vn 0.9373 0.0818 -0.3387
vn -0.1797 0.2308 -0.9562
vn -0.0989 0.2335 -0.9673
vn 0.9198 0.0470 -0.3894
vn 0.7516 -0.6328 -0.1864
vn -0.0505 0.2344 0.9708
vn 0.9242 0.1851 0.3340
vn 0.8857 0.0000 0.4644
vn -0.8857 -0.0000 0.4644
vn 0.0247 0.2346 0.9718
vn 0.0888 0.2337 0.9682
vn 0.0484 0.2344 0.9709
vn -0.9209 0.0000 0.3899
vn -0.9009 -0.0000 0.4341
vn 0.9209 0.0000 0.3899
vn -0.1797 0.2308 0.9562
vn -0.0989 0.2335 0.9673
vn 0.7533 0.6342 0.1744
vn 0.7516 -0.6328 0.1864
vn 0.9706 0.0000 -0.2407
vn 0.9728 0.0544 0.2252
vn 0.9728 0.0544 -0.2252
vn 0.9706 0.0000 0.2407
vn -0.6671 -0.1430 0.7311
vn 0.1263 -0.5316 -0.8375
vn 0.1485 0.0867 -0.9851
vn 0.4230 -0.1411 0.8951
vn -0.6671 -0.1430 -0.7311
vn 0.1263 -0.5316 0.8375
vn 0.1485 0.0867 0.9851
vn 0.4230 -0.1411 -0.8951
g Cone_Cone.001_BaseRobot
usemtl BaseRobot
s off
f 1/1/1 6/2/1 2/3/1
f 6/2/2 12/4/2 10/5/2
f 3/6/3 6/2/3 4/7/3
f 4/7/4 6/2/4 5/8/4
f 7/9/2 15/10/2 13/11/2
f 3/12/2 11/13/2 12/14/2
f 2/3/2 10/5/2 11/15/2
f 5/8/5 22/16/5 4/7/5
f 8/17/6 10/5/6 7/9/6
f 8/17/7 12/4/7 11/15/7
f 9/18/7 10/5/7 12/4/7
f 9/18/2 14/19/2 15/10/2
f 8/17/2 13/11/2 14/19/2
f 30/20/8 26/21/8 31/22/8
f 3/6/5 22/16/5 21/23/5
f 3/12/5 20/24/5 2/25/5
f 1/1/9 20/26/9 19/27/9
f 26/21/5 27/28/5 28/29/5
f 35/30/10 25/31/10 24/32/10
f 38/33/11 27/28/11 30/20/11
f 34/34/12 26/35/12 25/36/12
f 20/24/13 32/37/13 33/38/13
f 33/38/14 31/39/14 34/34/14
f 23/40/15 29/41/15 22/16/15
f 37/42/16 30/20/16 29/41/16
f 19/27/17 33/43/17 36/44/17
f 34/45/2 41/46/2 40/47/2
f 22/16/18 32/48/18 21/23/18
f 29/41/19 31/22/19 32/48/19
f 42/49/2 43/50/2 46/51/2
f 33/38/2 40/52/2 39/53/2
f 36/44/2 39/54/2 42/49/2
f 44/55/2 49/56/2 48/57/2
f 39/53/2 44/58/2 43/59/2
f 40/47/2 45/60/2 44/55/2
f 48/57/2 53/61/2 52/62/2
f 46/51/2 47/63/2 50/64/2
f 43/59/2 48/65/2 47/66/2
f 54/67/20 55/68/20 58/69/20
f 50/64/2 51/70/2 54/67/2
f 47/66/2 52/71/2 51/72/2
f 52/71/21 55/73/21 51/72/21
f 53/61/22 56/74/22 52/62/22
f 1/1/23 59/75/23 6/2/23
f 6/2/2 66/76/2 60/77/2
f 60/77/24 61/78/24 6/2/24
f 61/78/25 5/8/25 6/2/25
f 62/79/2 69/80/2 64/81/2
f 60/82/2 65/83/2 59/84/2
f 59/75/2 10/5/2 6/2/2
f 75/85/5 5/8/5 61/78/5
f 10/5/26 63/86/26 62/79/26
f 63/86/27 66/76/27 64/81/27
f 64/81/28 10/5/28 62/79/28
f 64/81/2 68/87/2 63/86/2
f 63/86/2 67/88/2 62/79/2
f 77/89/29 80/90/29 81/91/29
f 60/77/5 75/85/5 61/78/5
f 73/92/5 60/82/5 59/84/5
f 1/1/30 73/93/30 59/75/30
f 28/29/5 78/94/5 77/89/5
f 35/30/31 76/95/31 84/96/31
f 78/94/32 38/33/32 80/90/32
f 84/97/33 77/98/33 81/99/33
f 73/92/34 82/100/34 74/101/34
f 83/102/35 81/99/35 82/100/35
f 79/103/36 23/40/36 75/85/36
f 80/90/37 37/42/37 79/103/37
f 19/27/38 83/104/38 73/93/38
f 84/96/2 41/46/2 35/30/2
f 82/105/39 75/85/39 74/106/39
f 81/91/40 79/103/40 82/105/40
f 42/49/2 87/107/2 85/108/2
f 83/102/2 86/109/2 84/97/2
f 36/44/2 85/108/2 83/104/2
f 88/110/2 49/56/2 45/60/2
f 85/111/2 88/112/2 86/109/2
f 86/113/2 45/60/2 41/46/2
f 90/114/2 53/61/2 49/56/2
f 46/51/2 89/115/2 87/107/2
f 87/116/2 90/117/2 88/112/2
f 54/67/41 93/118/41 91/119/41
f 50/64/2 91/119/2 89/115/2
f 89/120/2 92/121/2 90/117/2
f 93/122/42 92/121/42 91/123/42
f 94/124/43 53/61/43 92/125/43
f 6/2/2 3/6/2 12/4/2
f 7/9/2 9/18/2 15/10/2
f 3/12/2 2/25/2 11/13/2
f 2/3/2 6/2/2 10/5/2
f 5/8/5 23/40/5 22/16/5
f 8/17/7 11/15/7 10/5/7
f 8/17/7 9/18/7 12/4/7
f 9/18/44 7/9/44 10/5/44
f 9/18/2 8/17/2 14/19/2
f 8/17/2 7/9/2 13/11/2
f 30/20/45 27/28/45 26/21/45
f 3/6/5 4/7/5 22/16/5
f 3/12/5 21/126/5 20/24/5
f 1/1/46 2/3/46 20/26/46
f 28/29/5 24/32/5 26/21/5
f 24/32/5 25/36/5 26/21/5
f 35/30/47 34/45/47 25/31/47
f 38/33/48 28/29/48 27/28/48
f 34/34/49 31/39/49 26/35/49
f 20/24/50 21/126/50 32/37/50
f 33/38/51 32/37/51 31/39/51
f 23/40/52 37/42/52 29/41/52
f 37/42/53 38/33/53 30/20/53
f 19/27/54 20/26/54 33/43/54
f 34/45/2 35/30/2 41/46/2
f 22/16/55 29/41/55 32/48/55
f 29/41/56 30/20/56 31/22/56
f 42/49/2 39/54/2 43/50/2
f 33/38/2 34/34/2 40/52/2
f 36/44/2 33/43/2 39/54/2
f 44/55/2 45/60/2 49/56/2
f 39/53/2 40/52/2 44/58/2
f 40/47/2 41/46/2 45/60/2
f 48/57/2 49/56/2 53/61/2
f 46/51/2 43/50/2 47/63/2
f 43/59/2 44/58/2 48/65/2
f 54/67/57 51/70/57 55/68/57
f 50/64/2 47/63/2 51/70/2
f 47/66/2 48/65/2 52/71/2
f 52/71/21 56/127/21 55/73/21
f 53/61/58 57/128/58 56/74/58
f 6/2/2 10/5/2 66/76/2
f 62/79/2 67/88/2 69/80/2
f 60/82/2 66/129/2 65/83/2
f 59/75/2 65/130/2 10/5/2
f 75/85/5 23/40/5 5/8/5
f 10/5/27 65/130/27 63/86/27
f 63/86/27 65/130/27 66/76/27
f 64/81/27 66/76/27 10/5/27
f 64/81/2 69/80/2 68/87/2
f 63/86/2 68/87/2 67/88/2
f 77/89/59 78/94/59 80/90/59
f 60/77/5 74/106/5 75/85/5
f 73/92/5 74/101/5 60/82/5
f 1/1/60 19/27/60 73/93/60
f 76/131/5 24/32/5 77/89/5
f 24/32/5 28/29/5 77/89/5
f 35/30/61 24/32/61 76/95/61
f 78/94/62 28/29/62 38/33/62
f 84/97/63 76/131/63 77/98/63
f 73/92/64 83/102/64 82/100/64
f 83/102/65 84/97/65 81/99/65
f 79/103/66 37/42/66 23/40/66
f 80/90/67 38/33/67 37/42/67
f 19/27/68 36/44/68 83/104/68
f 84/96/2 86/113/2 41/46/2
f 82/105/69 79/103/69 75/85/69
f 81/91/70 80/90/70 79/103/70
f 42/49/2 46/51/2 87/107/2
f 83/102/2 85/111/2 86/109/2
f 36/44/2 42/49/2 85/108/2
f 88/110/2 90/114/2 49/56/2
f 85/111/2 87/116/2 88/112/2
f 86/113/2 88/110/2 45/60/2
f 90/114/2 92/125/2 53/61/2
f 46/51/2 50/64/2 89/115/2
f 87/116/2 89/120/2 90/117/2
f 54/67/71 58/69/71 93/118/71
f 50/64/2 54/67/2 91/119/2
f 89/120/2 91/123/2 92/121/2
f 93/122/42 94/132/42 92/121/42
f 94/124/72 57/128/72 53/61/72
g Cone_Cone.001_Eyes
usemtl Eyes
f 58/69/73 56/74/73 57/128/73
f 58/69/74 94/124/74 93/118/74
f 58/69/75 55/68/75 56/74/75
f 58/69/76 57/128/76 94/124/76
g Cone_Cone.001_Arms
usemtl Arms
f 13/11/77 18/133/77 16/134/77
f 17/135/78 16/134/78 18/133/78
f 14/19/79 18/133/79 15/10/79
f 13/11/80 17/135/80 14/19/80
f 67/88/81 72/136/81 69/80/81
f 71/137/82 72/136/82 70/138/82
f 72/136/83 68/87/83 69/80/83
f 71/137/84 67/88/84 68/87/84
f 13/11/77 15/10/77 18/133/77
f 14/19/79 17/135/79 18/133/79
f 13/11/80 16/134/80 17/135/80
f 67/88/81 70/138/81 72/136/81
f 72/136/83 71/137/83 68/87/83
f 71/137/84 70/138/84 67/88/84
