# Blender v3.2.0 OBJ File: 'fren.blend'
# www.blender.org
mtllib fren.mtl
o Body_Sphere
v 0.000000 0.707107 -0.570322
v 0.000000 0.707107 0.570322
v 0.000000 -0.000000 1.000000
v -0.322365 0.707107 0.513843
v -0.433884 -0.000000 0.900969
v -0.520807 0.707107 0.355590
v -0.781832 -0.000000 0.623490
v 0.000000 0.838694 0.000000
v -0.630935 0.707107 0.126909
v -0.974928 -0.000000 0.222521
v -0.630935 0.707107 -0.126909
v -0.974928 -0.000000 -0.222521
v -0.520807 0.707107 -0.355590
v -0.781831 -0.000000 -0.623490
v -0.322365 0.707107 -0.513843
v -0.433883 -0.000000 -0.900969
v 0.000000 -0.000000 -1.000000
v 0.000000 0.353553 0.971865
v -0.356882 0.353553 0.875620
v -0.695040 0.353553 0.605948
v -0.882704 0.353553 0.216260
v -0.882704 0.353553 -0.216260
v -0.695040 0.353553 -0.605948
v -0.356881 0.202983 -0.875620
v 0.000000 0.353553 -0.971865
v 0.000000 -0.000000 -1.000000
v 0.000000 -0.000000 -1.664637
v -0.433883 -0.000000 -0.900969
v 0.322365 0.707107 0.513843
v 0.433884 -0.000000 0.900969
v 0.520807 0.707107 0.355590
v 0.781832 -0.000000 0.623490
v 0.630935 0.707107 0.126909
v 0.974928 -0.000000 0.222521
v 0.630935 0.707107 -0.126909
v 0.974928 -0.000000 -0.222521
v 0.520807 0.707107 -0.355590
v 0.781831 -0.000000 -0.623490
v 0.322365 0.707107 -0.513843
v 0.433883 -0.000000 -0.900969
v 0.356882 0.353553 0.875620
v 0.695040 0.353553 0.605948
v 0.882704 0.353553 0.216260
v 0.882704 0.353553 -0.216260
v 0.695040 0.353553 -0.605948
v 0.356881 0.202983 -0.875620
v 0.433883 -0.000000 -0.900969
vt 0.214286 0.750000
vt 0.178571 1.000000
vt 0.142857 0.750000
vt 0.142857 0.625000
vt 0.214286 0.625000
vt 0.107143 1.000000
vt 0.071429 0.750000
vt 0.071429 0.625000
vt 0.035714 1.000000
vt 0.000000 0.750000
vt 0.000000 0.625000
vt 1.000000 0.750000
vt 0.964286 1.000000
vt 0.928571 0.750000
vt 0.928571 0.625000
vt 1.000000 0.625000
vt 0.892857 1.000000
vt 0.857143 0.750000
vt 0.857143 0.625000
vt 0.821429 1.000000
vt 0.785714 0.750000
vt 0.785714 0.625000
vt 0.714286 0.625000
vt 0.750000 1.000000
vt 0.714286 0.750000
vt 0.714286 0.500000
vt 0.785714 0.500000
vt 0.857143 0.500000
vt 0.928571 0.500000
vt 1.000000 0.500000
vt 0.071429 0.500000
vt 0.000000 0.500000
vt 0.142857 0.500000
vt 0.214286 0.500000
vt 0.000000 0.000000
vt 0.000000 0.000000
vt 0.000000 0.000000
vt 0.142857 0.750000
vt 0.142857 0.625000
vt 0.071429 0.750000
vt 0.071429 0.625000
vt 0.000000 0.750000
vt 0.000000 0.625000
vt 1.000000 0.750000
vt 0.928571 0.750000
vt 0.928571 0.625000
vt 1.000000 0.625000
vt 0.857143 0.750000
vt 0.785714 0.750000
vt 0.857143 0.625000
vt 0.785714 0.625000
vt 0.785714 0.500000
vt 0.857143 0.500000
vt 0.928571 0.500000
vt 1.000000 0.500000
vt 0.071429 0.500000
vt 0.142857 0.500000
vt 0.000000 0.000000
vt 0.000000 0.000000
vt 0.000000 0.500000
vn -0.0394 0.9736 0.2246
vn -0.1755 0.7389 0.6506
vn -0.1330 0.9770 0.1668
vn -0.4725 0.6524 0.5925
vn -0.1860 0.9784 0.0896
vn -0.7203 0.6006 0.3469
vn -0.2042 0.9789 -0.0000
vn -0.8146 0.5801 -0.0000
vn -0.1860 0.9784 -0.0896
vn -0.7203 0.6006 -0.3469
vn -0.1330 0.9770 -0.1668
vn -0.3480 0.5622 -0.7502
vn -0.4252 0.5467 -0.7213
vn -0.0394 0.9736 -0.2246
vn -0.2179 0.2019 -0.9548
vn -0.6123 0.1884 -0.7678
vn -0.8756 0.2359 -0.4216
vn -0.9676 0.2524 -0.0000
vn -0.8756 0.2359 0.4216
vn -0.6123 0.1884 0.7678
vn -0.2210 0.1175 0.9682
vn 0.0000 1.0000 0.0000
vn 0.8096 -0.3646 0.4600
vn -1.0000 0.0000 0.0000
vn 0.0394 0.9736 0.2246
vn 0.1755 0.7389 0.6506
vn 0.1330 0.9770 0.1668
vn 0.4725 0.6524 0.5925
vn 0.1860 0.9784 0.0896
vn 0.7203 0.6006 0.3469
vn 0.2042 0.9789 -0.0000
vn 0.8146 0.5801 -0.0000
vn 0.1860 0.9784 -0.0896
vn 0.7203 0.6006 -0.3469
vn 0.1330 0.9770 -0.1668
vn 0.4725 0.6524 -0.5925
vn 0.4252 0.5467 -0.7213
vn 0.0394 0.9736 -0.2246
vn 0.2179 0.2019 -0.9548
vn 0.6123 0.1884 -0.7678
vn 0.8756 0.2359 -0.4216
vn 0.9676 0.2524 -0.0000
vn 0.8756 0.2359 0.4216
vn 0.6123 0.1884 0.7678
vn 0.2596 0.0766 0.9627
vn -0.8096 -0.3646 0.4600
vn -0.4461 -0.7972 0.4068
vn -0.1205 0.7157 0.6879
vn -0.4725 0.6524 -0.5925
vn -0.1150 0.7456 -0.6564
vn -0.2894 0.0759 -0.9542
vn -0.5120 0.2950 -0.8067
vn -0.2596 0.0766 0.9627
vn 0.4461 -0.7972 0.4068
vn 0.1205 0.7157 0.6879
vn 0.3480 0.5622 -0.7502
vn 0.1150 0.7456 -0.6564
vn 0.2894 0.0759 -0.9542
vn 0.5120 0.2950 -0.8067
vn 0.2210 0.1175 0.9682
vn 1.0000 0.0000 0.0000
g Body_Sphere_MainBody
usemtl MainBody
s off
f 2/1/1 8/2/1 4/3/1
f 2/1/2 19/4/2 18/5/2
f 4/3/3 8/6/3 6/7/3
f 4/3/4 20/8/4 19/4/4
f 6/7/5 8/9/5 9/10/5
f 6/7/6 21/11/6 20/8/6
f 9/12/7 8/13/7 11/14/7
f 9/12/8 22/15/8 21/16/8
f 11/14/9 8/17/9 13/18/9
f 22/15/10 13/18/10 23/19/10
f 13/18/11 8/20/11 15/21/11
f 23/19/12 15/21/12 24/22/12
f 15/21/13 25/23/13 24/22/13
f 15/21/14 8/24/14 1/25/14
f 24/22/15 17/26/15 16/27/15
f 23/19/16 16/27/16 14/28/16
f 22/15/17 14/28/17 12/29/17
f 21/16/18 12/29/18 10/30/18
f 7/31/19 21/11/19 10/32/19
f 5/33/20 20/8/20 7/31/20
f 3/34/21 19/4/21 5/33/21
f 27/35/22 16/27/22 17/26/22
f 16/27/23 27/35/23 24/22/23
f 25/36/24 27/35/24 17/37/24
f 2/1/25 29/38/25 8/2/25
f 41/39/26 2/1/26 18/5/26
f 29/38/27 31/40/27 8/6/27
f 42/41/28 29/38/28 41/39/28
f 31/40/29 33/42/29 8/9/29
f 43/43/30 31/40/30 42/41/30
f 33/44/31 35/45/31 8/13/31
f 44/46/32 33/44/32 43/47/32
f 35/45/33 37/48/33 8/17/33
f 44/46/34 37/48/34 35/45/34
f 37/48/35 39/49/35 8/20/35
f 45/50/36 39/49/36 37/48/36
f 25/23/37 39/49/37 46/51/37
f 39/49/38 1/25/38 8/24/38
f 17/26/39 46/51/39 40/52/39
f 40/52/40 45/50/40 38/53/40
f 38/53/41 44/46/41 36/54/41
f 36/54/42 43/47/42 34/55/42
f 32/56/43 43/43/43 42/41/43
f 30/57/44 42/41/44 41/39/44
f 3/34/45 41/39/45 18/5/45
f 27/35/22 17/26/22 40/52/22
f 40/52/46 46/51/46 27/35/46
f 25/36/47 27/35/47 46/58/47
f 2/1/48 4/3/48 19/4/48
f 4/3/4 6/7/4 20/8/4
f 6/7/6 9/10/6 21/11/6
f 9/12/8 11/14/8 22/15/8
f 22/15/10 11/14/10 13/18/10
f 23/19/49 13/18/49 15/21/49
f 15/21/50 1/25/50 25/23/50
f 24/22/51 25/23/51 17/26/51
f 23/19/52 24/22/52 16/27/52
f 22/15/17 23/19/17 14/28/17
f 21/16/18 22/15/18 12/29/18
f 7/31/19 20/8/19 21/11/19
f 5/33/20 19/4/20 20/8/20
f 3/34/53 18/5/53 19/4/53
f 25/36/54 24/59/54 27/35/54
f 41/39/55 29/38/55 2/1/55
f 42/41/28 31/40/28 29/38/28
f 43/43/30 33/42/30 31/40/30
f 44/46/32 35/45/32 33/44/32
f 44/46/34 45/50/34 37/48/34
f 45/50/56 46/51/56 39/49/56
f 25/23/57 1/25/57 39/49/57
f 17/26/58 25/23/58 46/51/58
f 40/52/59 46/51/59 45/50/59
f 38/53/41 45/50/41 44/46/41
f 36/54/42 44/46/42 43/47/42
f 32/56/43 34/60/43 43/43/43
f 30/57/44 32/56/44 42/41/44
f 3/34/60 30/57/60 41/39/60
f 25/36/61 17/37/61 27/35/61
l 17 26
l 26 27
l 16 28
l 40 47
o Leg2_Cone
v -0.674881 0.392339 -0.510004
v -0.806328 -0.007838 -0.292626
v -0.667451 0.037858 -0.727383
v -1.255138 -0.016119 -0.678824
vt 0.250000 0.490000
vt 0.250000 0.250000
vt 0.457846 0.130000
vt 0.750000 0.490000
vt 0.957846 0.130000
vt 0.542154 0.130000
vt 0.042154 0.130000
vn -0.5587 0.5300 0.6379
vn 0.9456 -0.1554 0.2857
vn 0.0849 -0.9934 -0.0773
vn -0.1176 0.5173 -0.8477
g Leg2_Cone_Material.001
usemtl Material.001
s off
f 48/61/62 51/62/62 49/63/62
f 48/64/63 49/65/63 50/66/63
f 49/63/64 51/62/64 50/67/64
f 50/67/65 51/62/65 48/61/65
o Arm2_Cone.001
v -0.790505 0.392339 0.286703
v -0.609076 -0.007838 0.464510
v -1.000382 0.037858 0.229604
v -1.087930 -0.016119 0.812759
vt 0.250000 0.490000
vt 0.250000 0.250000
vt 0.457846 0.130000
vt 0.750000 0.490000
vt 0.957846 0.130000
vt 0.542154 0.130000
vt 0.042154 0.130000
vn 0.4927 0.5300 0.6901
vn 0.4950 -0.1554 -0.8549
vn -0.0558 -0.9934 -0.1003
vn -0.8520 0.5173 -0.0800
g Arm2_Cone.001_Material.001
usemtl Material.001
s off
f 52/68/66 55/69/66 53/70/66
f 52/71/67 53/72/67 54/73/67
f 53/70/68 55/69/68 54/74/68
f 54/74/69 55/69/69 52/68/69
o Leg1_Cone.002
v 0.627893 0.392339 -0.510004
v 0.759339 -0.007838 -0.292626
v 0.620462 0.037858 -0.727383
v 1.208150 -0.016119 -0.678824
vt 0.250000 0.490000
vt 0.457846 0.130000
vt 0.250000 0.250000
vt 0.750000 0.490000
vt 0.542154 0.130000
vt 0.957846 0.130000
vt 0.042154 0.130000
vn 0.5587 0.5300 0.6379
vn -0.9456 -0.1554 0.2857
vn -0.0849 -0.9934 -0.0773
vn 0.1176 0.5173 -0.8477
g Leg1_Cone.002_Material.001
usemtl Material.001
s off
f 56/75/70 57/76/70 59/77/70
f 56/78/71 58/79/71 57/80/71
f 57/76/72 58/81/72 59/77/72
f 58/81/73 56/75/73 59/77/73
o Arm1_Cone.003
v 0.743516 0.392339 0.286703
v 0.562087 -0.007838 0.464510
v 0.953393 0.037858 0.229604
v 1.040942 -0.016119 0.812759
vt 0.250000 0.490000
vt 0.457846 0.130000
vt 0.250000 0.250000
vt 0.750000 0.490000
vt 0.542154 0.130000
vt 0.957846 0.130000
vt 0.042154 0.130000
vn -0.4927 0.5300 0.6901
vn -0.4950 -0.1554 -0.8549
vn 0.0558 -0.9934 -0.1003
vn 0.8520 0.5173 -0.0800
g Arm1_Cone.003_Material.001
usemtl Material.001
s off
f 60/82/74 61/83/74 63/84/74
f 60/85/75 62/86/75 61/87/75
f 61/83/76 62/88/76 63/84/76
f 62/88/77 60/82/77 63/84/77
o Eye_Cube.002
v 0.086445 0.414531 0.905428
v 0.079875 0.647579 0.835338
v 0.064694 0.344134 0.673396
v 0.058124 0.577183 0.603307
v 0.328832 0.414531 0.882706
v 0.322261 0.647579 0.812617
v 0.307081 0.344134 0.650675
v 0.300510 0.577183 0.580585
v 0.128650 0.456240 0.888817
v 0.124431 0.605870 0.843816
v 0.280057 0.605870 0.829227
v 0.284276 0.456240 0.874228
v 0.166502 0.493647 0.873920
v 0.164392 0.568463 0.851419
v 0.242205 0.568463 0.844125
v 0.244314 0.493647 0.866625
vt 0.625000 0.000000
vt 0.375000 0.250000
vt 0.375000 0.000000
vt 0.625000 0.250000
vt 0.375000 0.500000
vt 0.625000 0.500000
vt 0.375000 0.750000
vt 0.875000 0.750000
vt 0.625000 0.750000
vt 0.625000 0.750000
vt 0.125000 0.750000
vt 0.125000 0.500000
vt 0.875000 0.500000
vt 0.375000 0.750000
vt 0.625000 0.000000
vt 0.125000 0.750000
vt 0.875000 0.750000
vt 0.375000 0.000000
vt 0.625000 0.750000
vt 0.375000 1.000000
vt 0.375000 0.750000
vt 0.625000 1.000000
vt 0.125000 0.750000
vt 0.625000 0.000000
vt 0.875000 0.750000
vt 0.375000 0.000000
vn -0.9956 0.0000 0.0933
vn -0.0893 -0.2892 -0.9531
vn 0.9956 0.0000 -0.0933
vn 0.0893 0.2892 0.9531
vn 0.0270 -0.9573 0.2879
vn -0.0270 0.9573 -0.2879
g Eye_Cube.002_EyeOutside
usemtl EyeOutside
s off
f 65/89/78 66/90/78 64/91/78
f 67/92/79 70/93/79 66/90/79
f 71/94/80 68/95/80 70/93/80
f 65/96/81 74/97/81 69/98/81
f 70/93/82 64/99/82 66/100/82
f 67/101/83 69/98/83 71/94/83
f 69/98/81 75/102/81 68/95/81
f 64/91/81 73/103/81 65/89/81
f 68/95/81 72/104/81 64/99/81
f 65/89/78 67/92/78 66/90/78
f 67/92/79 71/94/79 70/93/79
f 71/94/80 69/98/80 68/95/80
f 65/96/81 73/105/81 74/97/81
f 70/93/82 68/95/82 64/99/82
f 67/101/83 65/96/83 69/98/83
f 69/98/81 74/97/81 75/102/81
f 64/91/81 72/106/81 73/103/81
f 68/95/81 75/102/81 72/104/81
g Eye_Cube.002_EyeInside
usemtl EyeInside
f 78/107/81 76/108/81 79/109/81
f 78/107/81 77/110/81 76/108/81
g Eye_Cube.002_EyeInside2
usemtl EyeInside2
f 73/105/81 78/107/81 74/97/81
f 75/102/81 78/107/81 79/109/81
f 75/102/81 76/111/81 72/104/81
f 72/106/81 77/112/81 73/103/81
f 73/105/81 77/113/81 78/107/81
f 75/102/81 74/97/81 78/107/81
f 75/102/81 79/109/81 76/111/81
f 72/106/81 76/114/81 77/112/81
o Mouth_Cube.003
v -0.429326 0.206294 0.908110
v -0.428860 0.240301 0.902631
v -0.418543 0.167858 0.773932
v -0.418078 0.201866 0.768453
v 0.513152 0.200949 0.900525
v 0.513618 0.234956 0.895046
v 0.500497 0.162513 0.813791
v 0.500963 0.196521 0.808312
v 0.011150 0.165186 0.841300
v 0.011616 0.199193 0.835820
v 0.000367 0.203622 1.027207
v 0.000833 0.237629 1.021728
vt 0.375000 0.000000
vt 0.625000 0.250000
vt 0.375000 0.250000
vt 0.625000 0.375000
vt 0.375000 0.500000
vt 0.375000 0.375000
vt 0.625000 0.500000
vt 0.375000 0.750000
vt 0.625000 0.875000
vt 0.375000 1.000000
vt 0.375000 0.875000
vt 0.250000 0.500000
vt 0.250000 0.750000
vt 0.750000 0.500000
vt 0.875000 0.750000
vt 0.750000 0.750000
vt 0.625000 0.750000
vt 0.125000 0.750000
vt 0.125000 0.500000
vt 0.625000 0.000000
vt 0.625000 1.000000
vt 0.875000 0.500000
vn -0.9968 0.0007 -0.0803
vn -0.0563 -0.1581 -0.9858
vn 0.9910 -0.0344 -0.1293
vn -0.2629 0.1570 0.9520
vn 0.0455 -0.9777 0.2048
vn 0.0612 0.9782 -0.1987
vn -0.0177 0.9151 -0.4029
vn -0.0485 -0.9612 0.2714
vn 0.2378 0.1513 0.9594
vn 0.1519 -0.1592 -0.9755
vn 0.0177 -0.9151 0.4029
vn 0.0485 0.9612 -0.2714
vn -0.0455 0.9777 -0.2048
vn -0.0612 -0.9782 0.1987
g Mouth_Cube.003_Mounth
usemtl Mounth
s off
f 80/115/84 83/116/84 82/117/84
f 89/118/85 86/119/85 88/120/85
f 87/121/86 84/122/86 86/119/86
f 91/123/87 80/124/87 90/125/87
f 88/126/88 84/122/88 90/127/88
f 89/128/89 81/129/89 91/130/89
f 89/128/90 85/131/90 87/121/90
f 88/126/91 80/132/91 82/133/91
f 84/122/92 91/123/92 90/125/92
f 82/117/93 89/118/93 88/120/93
f 80/115/84 81/134/84 83/116/84
f 89/118/85 87/121/85 86/119/85
f 87/121/86 85/131/86 84/122/86
f 91/123/87 81/135/87 80/124/87
f 88/126/94 86/119/94 84/122/94
f 89/128/95 83/136/95 81/129/95
f 89/128/96 91/130/96 85/131/96
f 88/126/97 90/127/97 80/132/97
f 84/122/92 85/131/92 91/123/92
f 82/117/93 83/116/93 89/118/93
o Hat_Cube.004
v -0.389107 0.754845 0.351127
v -0.389107 0.815198 0.351127
v -0.389107 0.754845 -0.427087
v -0.389107 0.815198 -0.427087
v 0.389107 0.754845 0.351127
v 0.389107 0.815198 0.351127
v 0.389107 0.754845 -0.427087
v 0.389107 0.815198 -0.427087
v -0.253173 0.815198 0.215193
v -0.253173 0.815198 -0.291153
v 0.253173 0.815198 -0.291153
v 0.253173 0.815198 0.215193
v -0.253173 1.637954 0.215193
v -0.253173 1.637954 -0.291153
v 0.253173 1.637954 -0.291153
v 0.253173 1.637954 0.215193
vt 0.625000 0.000000
vt 0.375000 0.250000
vt 0.375000 0.000000
vt 0.625000 0.250000
vt 0.375000 0.500000
vt 0.625000 0.500000
vt 0.375000 0.750000
vt 0.625000 0.750000
vt 0.375000 1.000000
vt 0.125000 0.750000
vt 0.125000 0.500000
vt 0.625000 0.750000
vt 0.625000 0.500000
vt 0.625000 0.750000
vt 0.625000 0.250000
vt 0.625000 1.000000
vt 0.625000 1.000000
vt 0.875000 0.500000
vt 0.625000 0.500000
vt 0.625000 0.000000
vt 0.625000 0.250000
vt 0.625000 1.000000
vt 0.875000 0.750000
vt 0.625000 0.000000
vn -1.0000 0.0000 0.0000
vn 0.0000 0.0000 -1.0000
vn 1.0000 0.0000 0.0000
vn 0.0000 0.0000 1.0000
vn 0.0000 -1.0000 0.0000
vn 0.0000 1.0000 0.0000
g Hat_Cube.004_Hat
usemtl Hat
s off
f 93/137/98 94/138/98 92/139/98
f 95/140/99 98/141/99 94/138/99
f 99/142/100 96/143/100 98/141/100
f 97/144/101 92/145/101 96/143/101
f 98/141/102 92/146/102 94/147/102
f 99/142/103 103/148/103 97/144/103
f 102/149/100 107/150/100 103/148/100
f 93/137/103 101/151/103 95/140/103
f 97/144/103 100/152/103 93/153/103
f 95/140/103 102/149/103 99/142/103
f 105/154/103 107/150/103 106/155/103
f 100/156/98 105/157/98 101/151/98
f 103/148/101 104/158/101 100/152/101
f 101/151/99 106/155/99 102/149/99
f 93/137/98 95/140/98 94/138/98
f 95/140/99 99/142/99 98/141/99
f 99/142/100 97/144/100 96/143/100
f 97/144/101 93/153/101 92/145/101
f 98/141/102 96/143/102 92/146/102
f 99/142/103 102/149/103 103/148/103
f 102/149/100 106/155/100 107/150/100
f 93/137/103 100/156/103 101/151/103
f 97/144/103 103/148/103 100/152/103
f 95/140/103 101/151/103 102/149/103
f 105/154/103 104/159/103 107/150/103
f 100/156/98 104/160/98 105/157/98
f 103/148/101 107/150/101 104/158/101
f 101/151/99 105/157/99 106/155/99
o Eye2_Cube.007
v -0.274302 0.414531 0.877143
v -0.264915 0.647579 0.807375
v -0.243226 0.344134 0.646175
v -0.233839 0.577183 0.576407
v -0.033027 0.414531 0.909606
v -0.023640 0.647579 0.839838
v -0.001951 0.344134 0.678638
v 0.007436 0.577183 0.608870
v -0.229441 0.456240 0.870466
v -0.223414 0.605870 0.825671
v -0.068501 0.605870 0.846514
v -0.074529 0.456240 0.891309
v -0.189206 0.493647 0.864478
v -0.186192 0.568463 0.842081
v -0.108736 0.568463 0.852502
v -0.111750 0.493647 0.874900
vt 0.625000 0.000000
vt 0.375000 0.250000
vt 0.375000 0.000000
vt 0.625000 0.250000
vt 0.375000 0.500000
vt 0.625000 0.500000
vt 0.375000 0.750000
vt 0.875000 0.750000
vt 0.625000 0.750000
vt 0.625000 0.750000
vt 0.125000 0.750000
vt 0.125000 0.500000
vt 0.875000 0.500000
vt 0.375000 0.750000
vt 0.625000 0.000000
vt 0.125000 0.750000
vt 0.875000 0.750000
vt 0.375000 0.000000
vt 0.625000 0.750000
vt 0.375000 1.000000
vt 0.375000 0.750000
vt 0.625000 1.000000
vt 0.125000 0.750000
vt 0.625000 0.000000
vt 0.875000 0.750000
vt 0.375000 0.000000
vn -0.9911 0.0000 -0.1333
vn 0.1276 -0.2892 -0.9487
vn 0.9911 0.0000 0.1333
vn -0.1276 0.2892 0.9487
vn -0.0386 -0.9573 0.2866
vn 0.0386 0.9573 -0.2866
vn -0.1277 0.2892 0.9487
g Eye2_Cube.007_EyeOutside
usemtl EyeOutside
s off
f 109/161/104 110/162/104 108/163/104
f 111/164/105 114/165/105 110/162/105
f 115/166/106 112/167/106 114/165/106
f 109/168/107 118/169/107 113/170/107
f 114/165/108 108/171/108 110/172/108
f 111/173/109 113/170/109 115/166/109
f 113/170/110 119/174/110 112/167/110
f 108/163/107 117/175/107 109/161/107
f 112/167/107 116/176/107 108/171/107
f 109/161/104 111/164/104 110/162/104
f 111/164/105 115/166/105 114/165/105
f 115/166/106 113/170/106 112/167/106
f 109/168/107 117/177/107 118/169/107
f 114/165/108 112/167/108 108/171/108
f 111/173/109 109/168/109 113/170/109
f 113/170/107 118/169/107 119/174/107
f 108/163/107 116/178/107 117/175/107
f 112/167/107 119/174/107 116/176/107
g Eye2_Cube.007_EyeInside
usemtl EyeInside
f 122/179/107 120/180/107 123/181/107
f 122/179/107 121/182/107 120/180/107
g Eye2_Cube.007_EyeInside2
usemtl EyeInside2
f 117/177/107 122/179/107 118/169/107
f 119/174/107 122/179/107 123/181/107
f 119/174/107 120/183/107 116/176/107
f 116/178/107 121/184/107 117/175/107
f 117/177/107 121/185/107 122/179/107
f 119/174/110 118/169/110 122/179/110
f 119/174/107 123/181/107 120/183/107
f 116/178/107 120/186/107 121/184/107
