# Blender v3.2.0 OBJ File: 'gun.blend'
# www.blender.org
mtllib gun.mtl
o Cube_Cube.001
v 0.475986 -0.086543 0.335193
v 0.475986 0.086543 0.335193
v 0.475986 -0.086543 -0.335193
v 0.475986 0.086543 -0.335193
v -0.475986 -0.086543 0.335193
v -0.475986 0.086543 0.335193
v -0.475986 -0.086543 -0.335193
v -0.475986 0.086543 -0.335193
v 0.583793 0.769018 0.335193
v 0.583793 0.769018 -0.335193
v -0.368179 0.769018 -0.335193
v -0.368179 0.769018 0.335193
v 0.651061 1.375061 0.335193
v 0.651061 1.375061 -0.335193
v -0.300911 1.375061 -0.335193
v -0.300911 1.375061 0.335193
v 0.667878 1.494993 0.347036
v 0.667878 1.494993 -0.347036
v -0.317728 1.494993 -0.347036
v -0.317728 1.494993 0.347036
v 0.667878 2.094344 0.347036
v 0.667878 2.094344 -0.347036
v -0.317728 2.094344 -0.347036
v -0.317728 2.094344 0.347036
v 2.874504 1.494993 0.347036
v 2.874504 1.494993 -0.347036
v 2.874504 2.094344 0.347036
v 2.874504 2.094344 -0.347036
v 2.941474 1.554696 0.277897
v 2.941474 1.554696 -0.277897
v 2.941474 2.034641 0.277897
v 2.941474 2.034641 -0.277897
v -0.565706 1.494993 -0.347036
v -0.565706 1.494993 0.347036
v -0.565706 2.094344 -0.347036
v -0.565706 2.094344 0.347036
v -0.640051 1.553406 -0.279391
v -0.640051 1.553406 0.279391
v -0.640051 2.035931 -0.279391
v -0.640051 2.035931 0.279391
v 0.667878 2.094344 0.347036
v 0.667878 2.094344 -0.347036
v -0.317728 2.094344 -0.347036
v -0.317728 2.094344 0.347036
v 0.204580 2.094344 0.283247
v 0.204580 2.094344 -0.283247
v -0.242974 2.094344 -0.283247
v -0.242974 2.094344 0.283247
v 0.204580 2.153922 0.283247
v 0.204580 2.153922 -0.283247
v -0.242974 2.153922 -0.283247
v -0.242974 2.153922 0.283247
v 1.239866 1.494993 0.168715
v 1.239866 1.494993 -0.168715
v 1.539274 1.494993 0.168715
v 1.539274 1.494993 -0.168715
v 0.593787 0.859064 0.146019
v 0.593787 0.859064 -0.146019
v 0.641066 1.069313 0.146019
v 0.641066 1.069313 -0.146019
v 1.185538 1.142174 -0.153560
v 1.253450 1.001783 -0.153560
v 1.253450 1.001783 0.153560
v 1.185538 1.142174 0.153560
v 0.953799 2.132921 0.290106
v 0.953799 2.132921 -0.290106
v 2.798433 2.132921 0.290106
v 2.798433 2.132921 -0.290106
v 0.075308 2.153922 0.057354
v 0.075308 2.153922 -0.057354
v -0.113703 2.153922 -0.057354
v -0.113703 2.153922 0.057354
v 0.075308 2.271210 0.057354
v 0.075308 2.271210 -0.057354
v -0.113703 2.271210 -0.057354
v -0.113703 2.271210 0.057354
v 0.840580 1.494993 0.125760
v 0.840580 1.494993 -0.125760
v 1.067164 1.494993 0.061140
v 1.067164 1.494993 -0.061140
v 0.827132 1.191964 0.125760
v 0.827132 1.191964 -0.125760
v 0.902864 1.405517 0.061140
v 0.902864 1.405517 -0.061140
v 2.941474 1.554696 0.277897
v 2.941474 1.554696 -0.277897
v 2.941474 2.034641 0.277897
v 2.941474 2.034641 -0.277897
v 2.941474 1.731169 0.073535
v 2.941474 1.731169 -0.073535
v 2.941474 1.858168 0.073535
v 2.941474 1.858168 -0.073535
v 2.862285 1.731169 0.073535
v 2.862285 1.731169 -0.073535
v 2.862285 1.858168 0.073535
v 2.862285 1.858168 -0.073535
vt 0.375000 0.000000
vt 0.625000 0.000000
vt 0.625000 0.250000
vt 0.375000 0.250000
vt 0.625000 0.500000
vt 0.375000 0.500000
vt 0.625000 0.750000
vt 0.375000 0.750000
vt 0.625000 1.000000
vt 0.375000 1.000000
vt 0.125000 0.500000
vt 0.125000 0.750000
vt 0.625000 0.500000
vt 0.625000 0.750000
vt 0.625000 1.000000
vt 0.625000 0.750000
vt 0.625000 1.000000
vt 0.625000 0.000000
vt 0.625000 0.250000
vt 0.625000 0.500000
vt 0.625000 0.250000
vt 0.625000 0.250000
vt 0.625000 0.500000
vt 0.625000 0.250000
vt 0.625000 0.250000
vt 0.625000 0.500000
vt 0.625000 0.750000
vt 0.625000 0.750000
vt 0.625000 0.500000
vt 0.625000 0.750000
vt 0.625000 0.000000
vt 0.625000 0.000000
vt 0.625000 1.000000
vt 0.625000 0.500000
vt 0.625000 0.750000
vt 0.625000 0.250000
vt 0.625000 0.250000
vt 0.625000 0.250000
vt 0.625000 1.000000
vt 0.625000 1.000000
vt 0.625000 1.000000
vt 0.625000 1.000000
vt 0.625000 1.000000
vt 0.625000 1.000000
vt 0.625000 1.000000
vt 0.625000 1.000000
vt 0.625000 1.000000
vt 0.625000 1.000000
vt 0.625000 1.000000
vt 0.625000 1.000000
vt 0.625000 0.000000
vt 0.625000 0.000000
vt 0.625000 0.250000
vt 0.625000 0.250000
vt 0.875000 0.750000
vt 0.875000 0.500000
vt 0.875000 0.500000
vt 0.875000 0.750000
vt 0.625000 0.750000
vt 0.625000 0.500000
vt 0.625000 0.500000
vt 0.625000 0.750000
vt 0.625000 0.500000
vt 0.625000 0.750000
vt 0.625000 0.500000
vt 0.625000 0.750000
vt 0.875000 0.500000
vt 0.875000 0.750000
vt 0.875000 0.750000
vt 0.875000 0.500000
vt 0.625000 1.000000
vt 0.625000 0.250000
vt 0.625000 1.000000
vt 0.625000 0.750000
vt 0.625000 1.000000
vt 0.875000 0.750000
vt 0.875000 0.500000
vt 0.625000 0.250000
vt 0.625000 0.750000
vt 0.625000 1.000000
vt 0.625000 0.250000
vt 0.625000 0.500000
vt 0.875000 0.750000
vt 0.875000 0.500000
vt 0.625000 0.250000
vt 0.625000 0.000000
vt 0.625000 0.000000
vt 0.625000 0.250000
vt 0.625000 1.000000
vt 0.625000 0.250000
vt 0.625000 0.250000
vt 0.625000 0.000000
vt 0.625000 1.000000
vt 0.625000 1.000000
vt 0.625000 0.000000
vt 0.625000 1.000000
vt 0.625000 1.000000
vt 0.625000 0.000000
vt 0.625000 0.000000
vt 0.875000 0.750000
vt 0.875000 0.500000
vt 0.875000 0.500000
vt 0.875000 0.750000
vt 0.625000 0.250000
vt 0.625000 0.250000
vt 0.625000 0.750000
vt 0.625000 1.000000
vt 0.625000 0.250000
vt 0.625000 0.500000
vt 0.875000 0.750000
vt 0.875000 0.500000
vt 0.625000 0.500000
vt 0.875000 0.500000
vt 0.875000 0.750000
vt 0.625000 0.250000
vt 0.625000 1.000000
vt 0.625000 1.000000
vt 0.625000 0.250000
vt 0.625000 0.000000
vt 0.625000 0.000000
vt 0.625000 0.250000
vt 0.625000 0.250000
vt 0.625000 0.000000
vt 0.625000 0.000000
vt 0.625000 0.250000
vt 0.625000 0.250000
vt 0.625000 0.250000
vt 0.625000 0.250000
vt 0.625000 0.250000
vt 0.625000 0.000000
vt 0.875000 0.500000
vt 0.875000 0.750000
vt 0.625000 1.000000
vt 0.625000 1.000000
vt 0.625000 1.000000
vt 0.625000 1.000000
vt 0.875000 0.500000
vt 0.875000 0.750000
vt 0.625000 0.000000
vt 0.625000 0.250000
vt 0.625000 0.000000
vt 0.625000 0.000000
vt 0.625000 0.250000
vt 0.875000 0.500000
vt 0.875000 0.750000
vn -1.0000 0.0000 0.0000
vn 0.0000 0.0000 1.0000
vn 1.0000 0.0000 0.0000
vn 0.0000 0.0000 -1.0000
vn 0.0000 1.0000 0.0000
vn 0.9878 -0.1560 0.0000
vn -0.9878 0.1560 0.0000
vn 0.0000 0.0983 0.9952
vn 0.9939 -0.1103 0.0000
vn -0.9872 0.1385 0.0790
vn 0.0000 -1.0000 0.0000
vn 0.9903 0.1389 0.0000
vn -0.9903 0.1389 0.0000
vn 0.0000 0.0983 -0.9952
vn -0.7183 0.0000 -0.6958
vn 0.0000 -0.8278 -0.5610
vn -0.6654 0.7464 0.0000
vn -0.7183 0.0000 0.6958
vn -0.6654 -0.7464 0.0000
vn 0.6178 0.7863 0.0000
vn 0.6730 0.0000 -0.7397
vn 0.6178 -0.7863 0.0000
vn 0.6730 0.0000 0.7397
vn -0.8652 0.5014 0.0000
vn 0.0119 0.0310 0.9994
vn -0.9995 0.0327 0.0000
vn -0.9872 0.1385 -0.0790
vn -0.9939 0.1103 0.0000
vn 0.0119 0.0310 -0.9994
vn 0.9884 -0.1522 0.0000
vn 0.1326 -0.9912 0.0000
vn 0.0124 0.0007 -0.9999
vn 0.0124 0.0007 0.9999
vn -0.2115 0.9774 0.0000
vn 0.0000 -0.8278 0.5610
vn 0.1337 -0.9910 0.0000
vn -0.4523 -0.8919 0.0000
vn -0.5174 0.2343 -0.8231
vn -0.9425 0.3342 0.0000
vn 0.9990 -0.0443 0.0000
vn -0.5174 0.2343 0.8231
vn -0.4783 0.8782 0.0000
usemtl None
s off
f 1/1/1 2/2/1 4/3/1 3/4/1
f 3/4/2 4/3/2 8/5/2 7/6/2
f 7/6/3 8/5/3 6/7/3 5/8/3
f 5/8/4 6/7/4 2/9/4 1/10/4
f 3/11/5 7/6/5 5/8/5 1/12/5
f 6/7/6 8/5/6 11/13/6 12/14/6
f 9/15/4 12/14/4 16/16/4 13/17/4
f 4/3/7 2/2/7 9/18/7 10/19/7
f 2/9/4 6/7/4 12/14/4 9/15/4
f 8/5/2 4/3/2 10/19/2 11/13/2
f 15/20/8 14/21/8 18/22/8 19/23/8
f 11/13/2 10/19/2 14/21/2 15/20/2
f 12/14/9 11/13/9 15/20/9 16/16/9
f 14/21/10 10/19/10 58/24/10 60/25/10
f 23/26/11 24/27/11 36/28/11 35/29/11
f 16/16/12 15/20/12 19/23/12 20/30/12
f 14/21/13 13/31/13 17/32/13 18/22/13
f 13/17/14 16/16/14 20/30/14 17/33/14
f 24/27/2 23/26/2 43/34/2 44/35/2
f 22/36/2 18/22/2 26/37/2 28/38/2
f 17/33/4 20/30/4 24/27/4 21/39/4
f 19/23/2 18/22/2 22/36/2 23/26/2
f 25/40/15 27/41/15 31/42/15 29/43/15
f 17/33/5 53/44/5 79/45/5 77/46/5
f 17/33/4 21/39/4 27/41/4 25/40/4
f 27/41/16 21/39/16 65/47/16 67/48/16
f 29/43/2 31/42/2 87/49/2 85/50/2
f 26/37/17 25/51/17 29/52/17 30/53/17
f 28/38/18 26/37/18 30/53/18 32/54/18
f 27/55/19 28/56/19 32/57/19 31/58/19
f 34/59/20 33/60/20 37/61/20 38/62/20
f 20/30/5 19/23/5 33/60/5 34/59/5
f 24/27/4 20/30/4 34/59/4 36/28/4
f 19/23/2 23/26/2 35/29/2 33/60/2
f 38/62/3 37/61/3 39/63/3 40/64/3
f 36/28/21 34/59/21 38/62/21 40/64/21
f 35/29/22 36/28/22 40/64/22 39/63/22
f 33/60/23 35/29/23 39/63/23 37/61/23
f 44/35/11 43/34/11 47/65/11 48/66/11
f 22/67/2 21/68/2 41/69/2 42/70/2
f 21/39/2 24/27/2 44/35/2 41/71/2
f 23/26/2 22/36/2 42/72/2 43/34/2
f 45/73/4 48/66/4 52/74/4 49/75/4
f 42/70/11 41/69/11 45/76/11 46/77/11
f 41/71/11 44/35/11 48/66/11 45/73/11
f 43/34/11 42/72/11 46/78/11 47/65/11
f 49/75/11 52/74/11 72/79/11 69/80/11
f 47/65/2 46/78/2 50/81/2 51/82/2
f 48/66/3 47/65/3 51/82/3 52/74/3
f 46/77/1 45/76/1 49/83/1 50/84/1
f 62/85/24 63/86/24 55/87/24 56/88/24
f 17/33/5 25/40/5 55/89/5 53/44/5
f 26/37/5 18/22/5 54/90/5 56/88/5
f 25/51/5 26/37/5 56/88/5 55/87/5
f 61/91/25 62/85/25 56/88/25 54/90/25
f 13/31/26 14/21/26 60/25/26 59/92/26
f 9/15/27 13/17/27 59/93/27 57/94/27
f 10/19/28 9/18/28 57/95/28 58/24/28
f 63/96/29 64/97/29 53/44/29 55/89/29
f 64/98/30 61/91/30 54/90/30 53/99/30
f 59/92/31 60/25/31 61/91/31 64/98/31
f 57/94/32 59/93/32 64/97/32 63/96/32
f 60/25/33 58/24/33 62/85/33 61/91/33
f 58/24/34 57/95/34 63/86/34 62/85/34
f 65/100/11 66/101/11 68/102/11 67/103/11
f 22/36/35 28/38/35 68/104/35 66/105/35
f 21/68/36 22/67/36 66/101/36 65/100/36
f 28/56/37 27/55/37 67/103/37 68/102/37
f 69/80/4 72/79/4 76/106/4 73/107/4
f 51/82/11 50/81/11 70/108/11 71/109/11
f 52/74/11 51/82/11 71/109/11 72/79/11
f 50/84/11 49/83/11 69/110/11 70/111/11
f 75/112/11 74/113/11 73/114/11 76/106/11
f 71/109/2 70/108/2 74/115/2 75/112/2
f 72/79/3 71/109/3 75/112/3 76/106/3
f 70/111/1 69/110/1 73/114/1 74/113/1
f 77/46/38 79/45/38 83/116/38 81/117/38
f 53/99/5 54/90/5 80/118/5 79/119/5
f 18/22/5 17/32/5 77/120/5 78/121/5
f 54/90/5 18/22/5 78/121/5 80/118/5
f 82/122/39 81/123/39 83/124/39 84/125/39
f 78/121/40 77/120/40 81/123/40 82/122/40
f 80/118/41 78/121/41 82/122/41 84/125/41
f 79/119/42 80/118/42 84/125/42 83/124/42
f 88/126/1 86/127/1 90/128/1 92/129/1
f 30/53/2 29/52/2 85/130/2 86/127/2
f 32/54/2 30/53/2 86/127/2 88/126/2
f 31/58/2 32/57/2 88/131/2 87/132/2
f 89/133/2 91/134/2 95/135/2 93/136/2
f 87/132/1 88/131/1 92/137/1 91/138/1
f 85/50/1 87/49/1 91/134/1 89/133/1
f 86/127/1 85/130/1 89/139/1 90/128/1
f 94/140/1 93/141/1 95/142/1 96/143/1
f 90/128/11 89/139/11 93/141/11 94/140/11
f 92/129/4 90/128/4 94/140/4 96/143/4
f 91/138/5 92/137/5 96/144/5 95/145/5
