# Blender v3.2.0 OBJ File: 'gun.blend'
# www.blender.org
mtllib gun.mtl
o Cube_Cube.001
v 0.475986 -0.086543 0.335193
v 0.475986 0.086543 0.335193
v 0.475986 -0.086543 -0.335193
v 0.475986 0.086543 -0.335193
v -0.475986 -0.086543 0.335193
v -0.475986 0.086543 0.335193
v -0.475986 -0.086543 -0.335193
v -0.475986 0.086543 -0.335193
v 0.583793 0.769018 0.335193
v 0.583793 0.769018 -0.335193
v -0.368179 0.769018 -0.335193
v -0.368179 0.769018 0.335193
v 0.651061 1.375061 0.335193
v 0.651061 1.375061 -0.335193
v -0.300911 1.375061 -0.335193
v -0.300911 1.375061 0.335193
v 0.667878 1.494993 0.347036
v 0.667878 1.494993 -0.347036
v -0.317728 1.494993 -0.347036
v -0.317728 1.494993 0.347036
v 0.667878 2.094344 0.347036
v 0.667878 2.094344 -0.347036
v -0.317728 2.094344 -0.347036
v -0.317728 2.094344 0.347036
v 2.874504 1.494993 0.347036
v 2.874504 1.494993 -0.347036
v 2.874504 2.094344 0.347036
v 2.874504 2.094344 -0.347036
v 2.941474 1.554696 0.277897
v 2.941474 1.554696 -0.277897
v 2.941474 2.034641 0.277897
v 2.941474 2.034641 -0.277897
v -0.565706 1.494993 -0.347036
v -0.565706 1.494993 0.347036
v -0.565706 2.094344 -0.347036
v -0.565706 2.094344 0.347036
v -0.640051 1.553406 -0.279391
v -0.640051 1.553406 0.279391
v -0.640051 2.035931 -0.279391
v -0.640051 2.035931 0.279391
v 0.667878 2.094344 0.347036
v 0.667878 2.094344 -0.347036
v -0.317728 2.094344 -0.347036
v -0.317728 2.094344 0.347036
v 0.204580 2.094344 0.283247
v 0.204580 2.094344 -0.283247
v -0.242974 2.094344 -0.283247
v -0.242974 2.094344 0.283247
v 0.204580 2.153922 0.283247
v 0.204580 2.153922 -0.283247
v -0.242974 2.153922 -0.283247
v -0.242974 2.153922 0.283247
v 1.239866 1.494993 0.168715
v 1.239866 1.494993 -0.168715
v 1.539274 1.494993 0.168715
v 1.539274 1.494993 -0.168715
v 0.593787 0.859064 0.146019
v 0.593787 0.859064 -0.146019
v 0.641066 1.069313 0.146019
v 0.641066 1.069313 -0.146019
v 1.185538 1.142174 -0.153560
v 1.253450 1.001783 -0.153560
v 1.253450 1.001783 0.153560
v 1.185538 1.142174 0.153560
v 0.953799 2.132921 0.290106
v 0.953799 2.132921 -0.290106
v 2.798433 2.132921 0.290106
v 2.798433 2.132921 -0.290106
v 0.075308 2.153922 0.057354
v 0.075308 2.153922 -0.057354
v -0.113703 2.153922 -0.057354
v -0.113703 2.153922 0.057354
v 0.075308 2.271210 0.057354
v 0.075308 2.271210 -0.057354
v -0.113703 2.271210 -0.057354
v -0.113703 2.271210 0.057354
v 0.840580 1.494993 0.125760
v 0.840580 1.494993 -0.125760
v 1.067164 1.494993 0.061140
v 1.067164 1.494993 -0.061140
v 0.827132 1.191964 0.125760
v 0.827132 1.191964 -0.125760
v 0.902864 1.405517 0.061140
v 0.902864 1.405517 -0.061140
v 2.941474 1.554696 0.277897
v 2.941474 1.554696 -0.277897
v 2.941474 2.034641 0.277897
v 2.941474 2.034641 -0.277897
v 2.941474 1.731169 0.073535
v 2.941474 1.731169 -0.073535
v 2.941474 1.858168 0.073535
v 2.941474 1.858168 -0.073535
v 2.862285 1.731169 0.073535
v 2.862285 1.731169 -0.073535
v 2.862285 1.858168 0.073535
v 2.862285 1.858168 -0.073535
vt 0.375000 0.250000
vt 0.625000 0.000000
vt 0.375000 0.000000
vt 0.375000 0.500000
vt 0.625000 0.250000
vt 0.375000 0.750000
vt 0.625000 0.500000
vt 0.375000 1.000000
vt 0.625000 0.750000
vt 0.125000 0.750000
vt 0.125000 0.500000
vt 0.625000 0.750000
vt 0.625000 1.000000
vt 0.625000 0.750000
vt 0.625000 0.250000
vt 0.625000 1.000000
vt 0.625000 0.500000
vt 0.625000 0.500000
vt 0.625000 0.250000
vt 0.625000 0.500000
vt 0.625000 0.250000
vt 0.625000 0.500000
vt 0.625000 0.750000
vt 0.625000 0.500000
vt 0.625000 0.750000
vt 0.625000 0.250000
vt 0.625000 0.000000
vt 0.625000 1.000000
vt 0.625000 1.000000
vt 0.625000 0.500000
vt 0.625000 0.250000
vt 0.625000 0.250000
vt 0.625000 1.000000
vt 0.625000 1.000000
vt 0.625000 1.000000
vt 0.625000 1.000000
vt 0.625000 1.000000
vt 0.625000 1.000000
vt 0.625000 1.000000
vt 0.625000 1.000000
vt 0.625000 1.000000
vt 0.625000 0.250000
vt 0.625000 0.000000
vt 0.625000 0.250000
vt 0.625000 0.250000
vt 0.875000 0.750000
vt 0.875000 0.500000
vt 0.875000 0.750000
vt 0.625000 0.750000
vt 0.625000 0.500000
vt 0.625000 0.750000
vt 0.625000 0.750000
vt 0.625000 0.750000
vt 0.625000 0.500000
vt 0.625000 0.500000
vt 0.625000 0.750000
vt 0.625000 0.750000
vt 0.875000 0.500000
vt 0.875000 0.750000
vt 0.875000 0.750000
vt 0.625000 0.250000
vt 0.625000 1.000000
vt 0.625000 1.000000
vt 0.875000 0.500000
vt 0.875000 0.500000
vt 0.625000 1.000000
vt 0.625000 0.250000
vt 0.625000 1.000000
vt 0.625000 0.750000
vt 0.625000 0.500000
vt 0.625000 0.500000
vt 0.875000 0.500000
vt 0.875000 0.750000
vt 0.625000 0.250000
vt 0.625000 0.000000
vt 0.625000 0.250000
vt 0.625000 1.000000
vt 0.625000 0.250000
vt 0.625000 1.000000
vt 0.625000 0.250000
vt 0.625000 0.000000
vt 0.625000 1.000000
vt 0.625000 1.000000
vt 0.625000 0.000000
vt 0.625000 0.000000
vt 0.625000 0.000000
vt 0.625000 1.000000
vt 0.625000 0.000000
vt 0.875000 0.750000
vt 0.875000 0.500000
vt 0.875000 0.750000
vt 0.625000 0.250000
vt 0.875000 0.500000
vt 0.625000 1.000000
vt 0.625000 0.750000
vt 0.625000 0.500000
vt 0.625000 0.250000
vt 0.875000 0.500000
vt 0.875000 0.750000
vt 0.625000 0.750000
vt 0.875000 0.500000
vt 0.625000 0.500000
vt 0.625000 0.250000
vt 0.875000 0.750000
vt 0.625000 1.000000
vt 0.625000 1.000000
vt 0.625000 0.000000
vt 0.625000 0.250000
vt 0.625000 0.250000
vt 0.625000 0.000000
vt 0.625000 0.250000
vt 0.625000 0.000000
vt 0.625000 0.000000
vt 0.625000 0.000000
vt 0.625000 0.250000
vt 0.625000 0.250000
vt 0.625000 0.250000
vt 0.625000 0.250000
vt 0.625000 0.250000
vt 0.625000 0.000000
vt 0.625000 0.000000
vt 0.875000 0.500000
vt 0.875000 0.500000
vt 0.625000 1.000000
vt 0.625000 1.000000
vt 0.625000 1.000000
vt 0.875000 0.750000
vt 0.875000 0.750000
vt 0.625000 1.000000
vt 0.625000 0.250000
vt 0.625000 0.000000
vt 0.625000 0.250000
vt 0.625000 0.000000
vt 0.625000 0.250000
vt 0.875000 0.750000
vt 0.875000 0.500000
vt 0.625000 1.000000
vt 0.625000 0.000000
vt 0.625000 0.250000
vt 0.875000 0.750000
vt 0.625000 0.250000
vt 0.625000 1.000000
vt 0.625000 1.000000
vt 0.625000 0.000000
vt 0.875000 0.500000
vn 1.0000 0.0000 0.0000
vn 0.0000 0.0000 -1.0000
vn -1.0000 0.0000 0.0000
vn 0.0000 0.0000 1.0000
vn 0.0000 -1.0000 0.0000
vn -0.9878 0.1560 0.0000
vn 0.9878 -0.1560 0.0000
vn 0.0000 -0.0983 -0.9952
vn -0.9939 0.1103 0.0000
vn 0.9861 -0.1095 -0.1248
vn 0.0000 1.0000 0.0000
vn -0.9903 -0.1389 0.0000
vn 0.9903 -0.1389 0.0000
vn 0.0000 -0.0983 0.9952
vn 0.7183 0.0000 0.6958
vn 0.0000 0.8278 0.5610
vn 0.6654 -0.7464 0.0000
vn 0.7183 0.0000 -0.6958
vn 0.6654 0.7464 0.0000
vn -0.6178 -0.7863 0.0000
vn -0.6730 0.0000 0.7397
vn -0.6178 0.7863 0.0000
vn -0.6730 0.0000 -0.7397
vn 0.8652 -0.5014 0.0000
vn -0.0289 -0.0140 -0.9995
vn 0.9995 -0.0327 0.0000
vn 0.9861 -0.1095 0.1248
vn 0.9939 -0.1103 0.0000
vn -0.0289 -0.0140 0.9995
vn -0.9884 0.1522 0.0000
vn -0.1326 0.9912 0.0000
vn -0.0120 0.0027 0.9999
vn -0.0120 0.0027 -0.9999
vn 0.2115 -0.9774 0.0000
vn 0.0000 0.8278 -0.5610
vn -0.1337 0.9910 0.0000
vn 0.4523 0.8919 0.0000
vn 0.2450 -0.4498 0.8589
vn 0.9425 -0.3342 0.0000
vn -0.9990 0.0443 0.0000
vn 0.2450 -0.4498 -0.8589
vn 0.4783 -0.8782 0.0000
vn 0.9743 -0.2191 0.0528
vn 0.0000 -0.0429 -0.9991
vn 0.9743 -0.2191 -0.0528
vn 0.0000 -0.0429 0.9991
vn -0.0130 -0.0063 0.9999
vn -0.0130 -0.0063 -0.9999
vn 0.6979 -0.0310 0.7155
vn 0.6979 -0.0310 -0.7155
usemtl Handle
s off
f 3/1/1 2/2/1 1/3/1
f 7/4/2 4/5/2 3/1/2
f 5/6/3 8/7/3 7/4/3
f 1/8/4 6/9/4 5/6/4
f 1/10/5 7/4/5 3/11/5
f 12/12/6 8/7/6 6/9/6
f 9/13/4 16/14/4 12/12/4
f 10/15/7 2/2/7 4/5/7
f 2/16/4 12/12/4 6/9/4
f 11/17/2 4/5/2 8/7/2
usemtl GunBase
f 19/18/8 14/19/8 15/20/8
usemtl Handle
f 15/20/2 10/15/2 11/17/2
f 16/14/9 11/17/9 12/12/9
f 60/21/10 10/15/10 14/19/10
usemtl GunBase
f 35/22/11 24/23/11 23/24/11
f 20/25/12 15/20/12 16/14/12
f 18/26/13 13/27/13 14/19/13
f 17/28/14 16/14/14 13/29/14
f 24/23/4 43/30/4 23/24/4
usemtl Handle
f 28/31/2 18/26/2 22/32/2
usemtl GunBase
f 21/33/4 20/25/4 17/28/4
f 23/24/2 18/26/2 19/18/2
f 29/34/15 27/35/15 25/36/15
f 77/37/5 53/38/5 17/28/5
usemtl Handle
f 25/36/4 21/33/4 17/28/4
usemtl GunBase
f 27/35/16 65/39/16 21/33/16
f 29/34/4 87/40/4 31/41/4
f 30/42/17 25/43/17 26/44/17
f 32/45/18 26/44/18 28/31/18
f 31/46/19 28/47/19 27/48/19
f 38/49/20 33/50/20 34/51/20
f 34/51/5 19/18/5 20/25/5
f 36/52/4 20/25/4 24/23/4
f 33/50/2 23/24/2 19/18/2
f 40/53/3 37/54/3 38/49/3
f 40/53/21 34/51/21 36/52/21
f 39/55/22 36/52/22 35/22/22
f 33/50/23 39/55/23 35/22/23
f 48/56/11 43/30/11 44/57/11
f 22/58/4 41/59/4 21/60/4
f 21/33/4 44/57/4 24/23/4
f 23/24/4 42/61/4 22/32/4
usemtl Aim
f 49/62/4 48/56/4 45/63/4
usemtl GunBase
f 46/64/11 41/59/11 42/65/11
f 45/63/11 44/57/11 41/66/11
f 43/30/11 46/67/11 42/61/11
usemtl Aim
f 69/68/11 52/69/11 49/62/11
f 51/70/2 46/67/2 47/71/2
f 52/69/3 47/71/3 48/56/3
f 50/72/1 45/73/1 46/64/1
usemtl Handle
f 56/74/24 63/75/24 62/76/24
usemtl GunBase
f 17/28/5 55/77/5 25/36/5
f 56/74/5 18/26/5 26/44/5
usemtl Handle
f 25/43/5 56/74/5 26/44/5
f 61/78/25 56/74/25 62/76/25
f 13/27/26 60/21/26 14/19/26
f 9/13/27 59/79/27 13/29/27
f 58/80/28 9/81/28 10/15/28
f 55/77/29 64/82/29 63/83/29
f 53/84/30 61/78/30 64/85/30
f 64/85/31 60/21/31 59/86/31
f 63/83/32 59/79/32 57/87/32
f 60/21/33 62/76/33 58/80/33
f 58/80/34 63/75/34 57/88/34
f 67/89/11 66/90/11 65/91/11
usemtl GunBase
f 66/92/35 28/31/35 22/32/35
f 65/91/36 22/58/36 21/60/36
f 68/93/37 27/48/37 28/47/37
usemtl Aim
f 73/94/4 72/95/4 69/68/4
f 71/96/11 50/97/11 51/70/11
f 72/95/11 51/70/11 52/69/11
f 70/98/11 49/99/11 50/72/11
f 76/100/11 74/101/11 75/102/11
f 75/102/2 70/103/2 71/96/2
f 76/100/3 71/96/3 72/95/3
f 74/101/1 69/104/1 70/98/1
f 77/37/38 83/105/38 79/106/38
usemtl GunBase
f 79/107/5 54/108/5 53/84/5
f 78/109/5 17/110/5 18/26/5
f 54/108/5 78/109/5 18/26/5
usemtl Aim
f 82/111/39 83/112/39 81/113/39
f 82/111/40 77/114/40 78/109/40
f 84/115/41 78/109/41 80/116/41
f 83/112/42 80/116/42 79/107/42
usemtl GunBase
f 88/117/1 90/118/1 86/119/1
f 30/42/4 85/120/4 29/121/4
f 32/45/4 86/119/4 30/42/4
f 31/46/4 88/122/4 32/123/4
usemtl Aim
f 93/124/2 91/125/2 89/126/2
usemtl GunBase
f 91/127/1 88/122/1 87/128/1
f 89/126/1 87/40/1 85/129/1
f 90/118/1 85/120/1 86/119/1
usemtl Aim
f 96/130/1 93/131/1 94/132/1
f 94/132/11 89/133/11 90/118/11
f 96/130/4 90/118/4 92/134/4
f 95/135/5 92/136/5 91/127/5
usemtl Handle
f 3/1/1 4/5/1 2/2/1
f 7/4/2 8/7/2 4/5/2
f 5/6/3 6/9/3 8/7/3
f 1/8/4 2/16/4 6/9/4
f 1/10/5 5/6/5 7/4/5
f 12/12/6 11/17/6 8/7/6
f 9/13/4 13/29/4 16/14/4
f 10/15/7 9/81/7 2/2/7
f 2/16/4 9/13/4 12/12/4
f 11/17/2 10/15/2 4/5/2
usemtl GunBase
f 19/18/8 18/26/8 14/19/8
usemtl Handle
f 15/20/2 14/19/2 10/15/2
f 16/14/9 15/20/9 11/17/9
f 60/21/43 58/80/43 10/15/43
usemtl GunBase
f 35/22/11 36/52/11 24/23/11
f 20/25/12 19/18/12 15/20/12
f 18/26/13 17/110/13 13/27/13
f 17/28/14 20/25/14 16/14/14
f 24/23/4 44/57/4 43/30/4
usemtl Handle
f 28/31/2 26/44/2 18/26/2
usemtl GunBase
f 21/33/4 24/23/4 20/25/4
f 23/24/2 22/32/2 18/26/2
f 29/34/15 31/41/15 27/35/15
f 77/37/5 79/106/5 53/38/5
usemtl Handle
f 25/36/4 27/35/4 21/33/4
usemtl GunBase
f 27/35/16 67/137/16 65/39/16
f 29/34/4 85/129/4 87/40/4
f 30/42/17 29/121/17 25/43/17
f 32/45/18 30/42/18 26/44/18
f 31/46/19 32/123/19 28/47/19
f 38/49/20 37/54/20 33/50/20
f 34/51/5 33/50/5 19/18/5
f 36/52/4 34/51/4 20/25/4
f 33/50/2 35/22/2 23/24/2
f 40/53/3 39/55/3 37/54/3
f 40/53/21 38/49/21 34/51/21
f 39/55/22 40/53/22 36/52/22
f 33/50/23 37/54/23 39/55/23
f 48/56/11 47/71/11 43/30/11
f 22/58/4 42/65/4 41/59/4
f 21/33/4 41/66/4 44/57/4
f 23/24/4 43/30/4 42/61/4
usemtl Aim
f 49/62/4 52/69/4 48/56/4
usemtl GunBase
f 46/64/11 45/73/11 41/59/11
f 45/63/11 48/56/11 44/57/11
f 43/30/11 47/71/11 46/67/11
usemtl Aim
f 69/68/11 72/95/11 52/69/11
f 51/70/2 50/97/2 46/67/2
f 52/69/3 51/70/3 47/71/3
f 50/72/1 49/99/1 45/73/1
usemtl Handle
f 56/74/24 55/138/24 63/75/24
usemtl GunBase
f 17/28/5 53/38/5 55/77/5
f 56/74/5 54/108/5 18/26/5
usemtl Handle
f 25/43/5 55/138/5 56/74/5
f 61/78/44 54/108/44 56/74/44
f 13/27/26 59/86/26 60/21/26
f 9/13/45 57/87/45 59/79/45
f 58/80/28 57/88/28 9/81/28
f 55/77/46 53/38/46 64/82/46
f 53/84/30 54/108/30 61/78/30
f 64/85/31 61/78/31 60/21/31
f 63/83/47 64/82/47 59/79/47
f 60/21/48 61/78/48 62/76/48
f 58/80/34 62/76/34 63/75/34
f 67/89/11 68/93/11 66/90/11
usemtl GunBase
f 66/92/35 68/139/35 28/31/35
f 65/91/36 66/90/36 22/58/36
f 68/93/37 67/89/37 27/48/37
usemtl Aim
f 73/94/4 76/100/4 72/95/4
f 71/96/11 70/103/11 50/97/11
f 72/95/11 71/96/11 51/70/11
f 70/98/11 69/104/11 49/99/11
f 76/100/11 73/140/11 74/101/11
f 75/102/2 74/141/2 70/103/2
f 76/100/3 75/102/3 71/96/3
f 74/101/1 73/140/1 69/104/1
f 77/37/49 81/142/49 83/105/49
usemtl GunBase
f 79/107/5 80/116/5 54/108/5
f 78/109/5 77/114/5 17/110/5
f 54/108/5 80/116/5 78/109/5
usemtl Aim
f 82/111/39 84/115/39 83/112/39
f 82/111/40 81/113/40 77/114/40
f 84/115/50 82/111/50 78/109/50
f 83/112/42 84/115/42 80/116/42
usemtl GunBase
f 88/117/1 92/134/1 90/118/1
f 30/42/4 86/119/4 85/120/4
f 32/45/4 88/117/4 86/119/4
f 31/46/4 87/128/4 88/122/4
usemtl Aim
f 93/124/2 95/143/2 91/125/2
usemtl GunBase
f 91/127/1 92/136/1 88/122/1
f 89/126/1 91/125/1 87/40/1
f 90/118/1 89/133/1 85/120/1
usemtl Aim
f 96/130/1 95/144/1 93/131/1
f 94/132/11 93/131/11 89/133/11
f 96/130/4 94/132/4 90/118/4
f 95/135/5 96/145/5 92/136/5
